  0
SECTION
  2
HEADER
  9
$ACADVER
  1
AC1015
  9
$ACADMAINTVER
 70
     6
  9
$DWGCODEPAGE
  3
ANSI_1252
  9
$INSBASE
 10
0.0
 20
0.0
 30
0.0
  9
$EXTMIN
 10
-90.0
 20
-102.5
 30
0.0
  9
$EXTMAX
 10
90.0
 20
102.5
 30
0.0
  9
$LIMMIN
 10
0.0
 20
0.0
  9
$LIMMAX
 10
420.0
 20
297.0
  9
$ORTHOMODE
 70
     0
  9
$REGENMODE
 70
     1
  9
$FILLMODE
 70
     1
  9
$QTEXTMODE
 70
     0
  9
$MIRRTEXT
 70
     1
  9
$LTSCALE
 40
1.0
  9
$ATTMODE
 70
     1
  9
$TEXTSIZE
 40
3.5
  9
$TRACEWID
 40
1.0
  9
$TEXTSTYLE
  7
Standard
  9
$CLAYER
  8
0
  9
$CELTYPE
  6
ByLayer
  9
$CECOLOR
 62
   256
  9
$CELTSCALE
 40
1.0
  9
$DISPSILH
 70
     0
  9
$DIMSCALE
 40
1.0
  9
$DIMASZ
 40
3.556
  9
$DIMEXO
 40
0.0
  9
$DIMDLI
 40
3.75
  9
$DIMRND
 40
0.0
  9
$DIMDLE
 40
0.0
  9
$DIMEXE
 40
1.0
  9
$DIMTP
 40
0.0
  9
$DIMTM
 40
0.0
  9
$DIMTXT
 40
3.5
  9
$DIMCEN
 40
2.5
  9
$DIMTSZ
 40
0.0
  9
$DIMTOL
 70
     0
  9
$DIMLIM
 70
     0
  9
$DIMTIH
 70
     1
  9
$DIMTOH
 70
     1
  9
$DIMSE1
 70
     0
  9
$DIMSE2
 70
     0
  9
$DIMTAD
 70
     1
  9
$DIMZIN
 70
     1
  9
$DIMBLK
  1

  9
$DIMASO
 70
     1
  9
$DIMSHO
 70
     1
  9
$DIMPOST
  1

  9
$DIMAPOST
  1

  9
$DIMALT
 70
     0
  9
$DIMALTD
 70
     3
  9
$DIMALTF
 40
0.0393700787
  9
$DIMLFAC
 40
1.0
  9
$DIMTOFL
 70
     1
  9
$DIMTVP
 40
0.0
  9
$DIMTIX
 70
     0
  9
$DIMSOXD
 70
     0
  9
$DIMSAH
 70
     0
  9
$DIMBLK1
  1

  9
$DIMBLK2
  1

  9
$DIMSTYLE
  2
ISO-25
  9
$DIMCLRD
 70
     0
  9
$DIMCLRE
 70
     0
  9
$DIMCLRT
 70
     0
  9
$DIMTFAC
 40
1.0
  9
$DIMGAP
 40
1.524
  9
$DIMJUST
 70
     0
  9
$DIMSD1
 70
     0
  9
$DIMSD2
 70
     0
  9
$DIMTOLJ
 70
     0
  9
$DIMTZIN
 70
     1
  9
$DIMALTZ
 70
     0
  9
$DIMALTTZ
 70
     0
  9
$DIMUPT
 70
     0
  9
$DIMDEC
 70
     2
  9
$DIMTDEC
 70
     2
  9
$DIMALTU
 70
     2
  9
$DIMALTTD
 70
     3
  9
$DIMTXSTY
  7
Standard
  9
$DIMAUNIT
 70
     0
  9
$DIMADEC
 70
     2
  9
$DIMALTRND
 40
0.0
  9
$DIMAZIN
 70
     0
  9
$DIMDSEP
 70
    44
  9
$DIMATFIT
 70
     3
  9
$DIMFRAC
 70
     0
  9
$DIMLDRBLK
  1

  9
$DIMLUNIT
 70
     2
  9
$DIMLWD
 70
    -2
  9
$DIMLWE
 70
    -2
  9
$DIMTMOVE
 70
     0
  9
$LUNITS
 70
     2
  9
$LUPREC
 70
     2
  9
$SKETCHINC
 40
1.0
  9
$FILLETRAD
 40
0.0
  9
$AUNITS
 70
     0
  9
$AUPREC
 70
     2
  9
$MENU
  1
.
  9
$ELEVATION
 40
0.0
  9
$PELEVATION
 40
0.0
  9
$THICKNESS
 40
0.0
  9
$LIMCHECK
 70
     0
  9
$CHAMFERA
 40
0.0
  9
$CHAMFERB
 40
0.0
  9
$CHAMFERC
 40
0.0
  9
$CHAMFERD
 40
0.0
  9
$SKPOLY
 70
     0
  9
$TDCREATE
 40
2461193.456327037
  9
$TDUCREATE
 40
2461193.372993704
  9
$TDUPDATE
 40
2461193.45640522
  9
$TDUUPDATE
 40
2461193.373071887
  9
$TDINDWG
 40
0.0000000116
  9
$TDUSRTIMER
 40
0.0000000116
  9
$USRTIMER
 70
     1
  9
$ANGBASE
 50
0.0
  9
$ANGDIR
 70
     0
  9
$PDMODE
 70
     0
  9
$PDSIZE
 40
-1.0
  9
$PLINEWID
 40
0.0
  9
$SPLFRAME
 70
     0
  9
$SPLINETYPE
 70
     6
  9
$SPLINESEGS
 70
     8
  9
$HANDSEED
  5
87
  9
$SURFTAB1
 70
     6
  9
$SURFTAB2
 70
     6
  9
$SURFTYPE
 70
     6
  9
$SURFU
 70
     6
  9
$SURFV
 70
     6
  9
$UCSBASE
  2

  9
$UCSNAME
  2

  9
$UCSORG
 10
0.0
 20
0.0
 30
0.0
  9
$UCSXDIR
 10
1.0
 20
0.0
 30
0.0
  9
$UCSYDIR
 10
0.0
 20
1.0
 30
0.0
  9
$UCSORTHOREF
  2

  9
$UCSORTHOVIEW
 70
     0
  9
$UCSORGTOP
 10
0.0
 20
0.0
 30
0.0
  9
$UCSORGBOTTOM
 10
0.0
 20
0.0
 30
0.0
  9
$UCSORGLEFT
 10
0.0
 20
0.0
 30
0.0
  9
$UCSORGRIGHT
 10
0.0
 20
0.0
 30
0.0
  9
$UCSORGFRONT
 10
0.0
 20
0.0
 30
0.0
  9
$UCSORGBACK
 10
0.0
 20
0.0
 30
0.0
  9
$PUCSBASE
  2

  9
$PUCSNAME
  2

  9
$PUCSORG
 10
0.0
 20
0.0
 30
0.0
  9
$PUCSXDIR
 10
1.0
 20
0.0
 30
0.0
  9
$PUCSYDIR
 10
0.0
 20
1.0
 30
0.0
  9
$PUCSORTHOREF
  2

  9
$PUCSORTHOVIEW
 70
     0
  9
$PUCSORGTOP
 10
0.0
 20
0.0
 30
0.0
  9
$PUCSORGBOTTOM
 10
0.0
 20
0.0
 30
0.0
  9
$PUCSORGLEFT
 10
0.0
 20
0.0
 30
0.0
  9
$PUCSORGRIGHT
 10
0.0
 20
0.0
 30
0.0
  9
$PUCSORGFRONT
 10
0.0
 20
0.0
 30
0.0
  9
$PUCSORGBACK
 10
0.0
 20
0.0
 30
0.0
  9
$USERI1
 70
     0
  9
$USERI2
 70
     0
  9
$USERI3
 70
     0
  9
$USERI4
 70
     0
  9
$USERI5
 70
     0
  9
$USERR1
 40
0.0
  9
$USERR2
 40
0.0
  9
$USERR3
 40
0.0
  9
$USERR4
 40
0.0
  9
$USERR5
 40
0.0
  9
$WORLDVIEW
 70
     1
  9
$SHADEDGE
 70
     3
  9
$SHADEDIF
 70
    70
  9
$TILEMODE
 70
     1
  9
$MAXACTVP
 70
    64
  9
$PINSBASE
 10
0.0
 20
0.0
 30
0.0
  9
$PLIMCHECK
 70
     0
  9
$PEXTMIN
 10
1.0000000000E+20
 20
1.0000000000E+20
 30
1.0000000000E+20
  9
$PEXTMAX
 10
-1.0000000000E+20
 20
-1.0000000000E+20
 30
-1.0000000000E+20
  9
$PLIMMIN
 10
0.0
 20
0.0
  9
$PLIMMAX
 10
420.0
 20
297.0
  9
$UNITMODE
 70
     0
  9
$VISRETAIN
 70
     1
  9
$PLINEGEN
 70
     0
  9
$PSLTSCALE
 70
     1
  9
$TREEDEPTH
 70
  3020
  9
$CMLSTYLE
  2
Standard
  9
$CMLJUST
 70
     0
  9
$CMLSCALE
 40
20.0
  9
$PROXYGRAPHICS
 70
     1
  9
$MEASUREMENT
 70
     1
  9
$CELWEIGHT
370
    -1
  9
$ENDCAPS
280
     0
  9
$JOINSTYLE
280
     0
  9
$LWDISPLAY
290
     1
  9
$INSUNITS
 70
     4
  9
$HYPERLINKBASE
  1

  9
$STYLESHEET
  1

  9
$XEDIT
290
     1
  9
$CEPSNTYPE
380
     0
  9
$PSTYLEMODE
290
     1
  9
$FINGERPRINTGUID
  2
{5b37cff5-6c6e-47e2-8f74-85a3b234d49e}
  9
$VERSIONGUID
  2
{FAEB1C32-E019-11D5-929B-00C0DF256EC4}
  9
$EXTNAMES
290
     1
  9
$PSVPSCALE
 40
0.0
  9
$OLESTARTUP
290
     0
  0
ENDSEC
  0
SECTION
  2
CLASSES
  0
CLASS
  1
ACDBDICTIONARYWDFLT
  2
AcDbDictionaryWithDefault
  3
ObjectDBX Classes
 90
        0
280
     0
281
     0
  0
CLASS
  1
VISUALSTYLE
  2
AcDbVisualStyle
  3
ObjectDBX Classes
 90
     4095
280
     0
281
     0
  0
CLASS
  1
MATERIAL
  2
AcDbMaterial
  3
ObjectDBX Classes
 90
     1153
280
     0
281
     0
  0
CLASS
  1
SCALE
  2
AcDbScale
  3
ObjectDBX Classes
 90
     1153
280
     0
281
     0
  0
CLASS
  1
TABLESTYLE
  2
AcDbTableStyle
  3
ObjectDBX Classes
 90
     4095
280
     0
281
     0
  0
CLASS
  1
MLEADERSTYLE
  2
AcDbMLeaderStyle
  3
ACDB_MLEADERSTYLE_CLASS
 90
     4095
280
     0
281
     0
  0
CLASS
  1
SUN
  2
AcDbSun
  3
SCENEOE
 90
     1153
280
     0
281
     0
  0
CLASS
  1
ACDBPLACEHOLDER
  2
AcDbPlaceHolder
  3
ObjectDBX Classes
 90
        0
280
     0
281
     0
  0
CLASS
  1
LAYOUT
  2
AcDbLayout
  3
ObjectDBX Classes
 90
        0
280
     0
281
     0
  0
ENDSEC
  0
SECTION
  2
TABLES
  0
TABLE
  2
VPORT
  5
8
330
0
100
AcDbSymbolTable
 70
     1
  0
VPORT
  5
29
330
8
100
AcDbSymbolTableRecord
100
AcDbViewportTableRecord
  2
*Active
 70
     0
 10
0.0
 20
0.0
 11
1.0
 21
1.0
 12
0.0
 22
0.0
 13
0.0
 23
0.0
 14
10.0
 24
10.0
 15
10.0
 25
10.0
 16
0.0
 26
0.0
 36
1.0
 17
0.0
 27
0.0
 37
0.0
 40
209.1
 41
0.8780487805
 42
50.0
 43
0.0
 44
0.0
 50
0.0
 51
0.0
 71
     0
 72
   100
 73
     1
 74
     3
 75
     0
 76
     0
 77
     0
 78
     0
281
     0
 65
     1
110
0.0
120
0.0
130
0.0
111
1.0
121
0.0
131
0.0
112
0.0
122
1.0
132
0.0
 79
     0
146
0.0
  0
ENDTAB
  0
TABLE
  2
LTYPE
  5
5
330
0
100
AcDbSymbolTable
 70
     6
  0
LTYPE
  5
14
330
5
100
AcDbSymbolTableRecord
100
AcDbLinetypeTableRecord
  2
ByBlock
 70
     0
  3

 72
    65
 73
     0
 40
0.0
  0
LTYPE
  5
15
330
5
100
AcDbSymbolTableRecord
100
AcDbLinetypeTableRecord
  2
ByLayer
 70
     0
  3

 72
    65
 73
     0
 40
0.0
  0
LTYPE
  5
16
330
5
100
AcDbSymbolTableRecord
100
AcDbLinetypeTableRecord
  2
Continuous
 70
     0
  3
Solid line
 72
    65
 73
     0
 40
0.0
  0
LTYPE
  5
5E
330
5
100
AcDbSymbolTableRecord
100
AcDbLinetypeTableRecord
  2
HIDDEN
 70
     0
  3
Hidden __ __ __ __ __ __ __ __ __ __ __ __ __ __
 72
    65
 73
     2
 40
1.905
 49
1.27
 74
     0
 49
-0.635
 74
     0
  0
LTYPE
  5
5F
330
5
100
AcDbSymbolTableRecord
100
AcDbLinetypeTableRecord
  2
PHANTOM
 70
     0
  3
Phantom ______  __  __  ______  __  __  ______
 72
    65
 73
     6
 40
12.7
 49
6.35
 74
     0
 49
-1.27
 74
     0
 49
1.27
 74
     0
 49
-1.27
 74
     0
 49
1.27
 74
     0
 49
-1.27
 74
     0
  0
LTYPE
  5
60
330
5
100
AcDbSymbolTableRecord
100
AcDbLinetypeTableRecord
  2
CENTER
 70
     0
  3
Center ____ _ ____ _ ____ _ ____ _ ____ _ ____
 72
    65
 73
     4
 40
10.16
 49
6.35
 74
     0
 49
-1.27
 74
     0
 49
1.27
 74
     0
 49
-1.27
 74
     0
  0
LTYPE
  5
61
330
5
100
AcDbSymbolTableRecord
100
AcDbLinetypeTableRecord
  2
CENTERX2
 70
     0
  3
Center (2x) ________  __  ________  __  _____
 72
    65
 73
     4
 40
20.32
 49
12.7
 74
     0
 49
-2.54
 74
     0
 49
2.54
 74
     0
 49
-2.54
 74
     0
  0
LTYPE
  5
62
330
5
100
AcDbSymbolTableRecord
100
AcDbLinetypeTableRecord
  2
DOT2
 70
     0
  3
Dot (.5x) ........................................
 72
    65
 73
     2
 40
0.635
 49
0.0
 74
     0
 49
-0.635
 74
     0
  0
ENDTAB
  0
TABLE
  2
LAYER
  5
2
330
0
100
AcDbSymbolTable
 70
     1
  0
LAYER
  5
10
330
2
100
AcDbSymbolTableRecord
100
AcDbLayerTableRecord
  2
0
 70
     0
 62
     7
  6
Continuous
370
    -3
390
F
  0
ENDTAB
  0
TABLE
  2
STYLE
  5
3
330
0
100
AcDbSymbolTable
 70
     1
  0
STYLE
  5
11
330
3
100
AcDbSymbolTableRecord
100
AcDbTextStyleTableRecord
  2
Standard
 70
     0
 40
0.0
 41
1.0
 50
0.0
 71
     0
 42
3.5
  3
txt
  4

  0
ENDTAB
  0
TABLE
  2
VIEW
  5
6
330
0
100
AcDbSymbolTable
 70
     0
  0
ENDTAB
  0
TABLE
  2
UCS
  5
7
330
0
100
AcDbSymbolTable
 70
     0
  0
ENDTAB
  0
TABLE
  2
APPID
  5
9
330
0
100
AcDbSymbolTable
 70
     1
  0
APPID
  5
12
330
9
100
AcDbSymbolTableRecord
100
AcDbRegAppTableRecord
  2
ACAD
 70
     0
  0
ENDTAB
  0
TABLE
  2
DIMSTYLE
  5
A
330
0
100
AcDbSymbolTable
 70
     1
100
AcDbDimStyleTable
  0
DIMSTYLE
105
27
330
A
100
AcDbSymbolTableRecord
100
AcDbDimStyleTableRecord
  2
ISO-25
 70
     0
 41
2.5
 42
0.625
 43
3.75
 44
1.25
 73
     0
 74
     0
 77
     1
 78
     8
140
2.5
141
2.5
143
0.0393700787
147
0.625
171
     3
172
     1
178
     0
271
     2
272
     2
274
     3
278
    44
283
     0
284
     8
340
11
  0
ENDTAB
  0
TABLE
  2
BLOCK_RECORD
  5
1
330
0
100
AcDbSymbolTable
 70
     1
  0
BLOCK_RECORD
  5
1F
330
1
100
AcDbSymbolTableRecord
100
AcDbBlockTableRecord
  2
*Model_Space
340
22
  0
BLOCK_RECORD
  5
1B
330
1
100
AcDbSymbolTableRecord
100
AcDbBlockTableRecord
  2
*Paper_Space
340
1E
  0
BLOCK_RECORD
  5
23
330
1
100
AcDbSymbolTableRecord
100
AcDbBlockTableRecord
  2
*Paper_Space0
340
26
  0
ENDTAB
  0
ENDSEC
  0
SECTION
  2
BLOCKS
  0
BLOCK
  5
20
330
1F
100
AcDbEntity
  8
0
100
AcDbBlockBegin
  2
*Model_Space
 70
     0
 10
0.0
 20
0.0
 30
0.0
  3
*Model_Space
  1

  0
ENDBLK
  5
21
330
1F
100
AcDbEntity
  8
0
100
AcDbBlockEnd
  0
BLOCK
  5
1C
330
1B
100
AcDbEntity
 67
     1
  8
0
100
AcDbBlockBegin
  2
*Paper_Space
 70
     0
 10
0.0
 20
0.0
 30
0.0
  3
*Paper_Space
  1

  0
ENDBLK
  5
1D
330
1B
100
AcDbEntity
 67
     1
  8
0
100
AcDbBlockEnd
  0
BLOCK
  5
24
330
23
100
AcDbEntity
  8
0
100
AcDbBlockBegin
  2
*Paper_Space0
 70
     0
 10
0.0
 20
0.0
 30
0.0
  3
*Paper_Space0
  1

  0
ENDBLK
  5
25
330
23
100
AcDbEntity
  8
0
100
AcDbBlockEnd
  0
ENDSEC
  0
SECTION
  2
ENTITIES
  0
LWPOLYLINE
  5
64
330
1F
100
AcDbEntity
  8
0
  6
Continuous
 62
     7
100
AcDbPolyline
 90
      167
 70
   128
 43
0.0
 10
-72.3639726639
 20
-78.8622277832
 10
-72.530122261
 20
-78.8477809906
 10
-72.6854252815
 20
-78.8044406128
 10
-72.8298932076
 20
-78.7285949516
 10
-72.959914341
 20
-78.6238557053
 10
-73.0863237762
 20
-78.4902228737
 10
-73.1982864189
 20
-78.3276964569
 10
-73.2994139671
 20
-78.1362764549
 10
-73.3897064209
 20
-77.9123511696
 10
-73.3897064209
 20
-77.9123511696
 10
-73.5413977432
 20
-77.5439579582
 10
-73.6858656693
 20
-77.2586338043
 10
-73.8267218971
 20
-77.0491553116
 10
-73.9603547287
 20
-76.9227458763
 10
-73.9603547287
 20
-76.9227458763
 10
-74.1156577492
 20
-76.8613470078
 10
-74.3576415253
 20
-76.8180066299
 10
-74.686306057
 20
-76.7891130447
 10
-75.0980396461
 20
-76.7818896484
 10
-75.0980396461
 20
-76.7818896484
 10
-75.4989381409
 20
-76.8252300262
 10
-75.9142834282
 20
-76.9516394615
 10
-76.3368521118
 20
-77.1683413506
 10
-76.7702558899
 20
-77.4681122971
 10
-77.2181064606
 20
-77.850952301
 10
-77.6767921257
 20
-78.3240847588
 10
-78.1427011871
 20
-78.880286274
 10
-78.6230570412
 20
-79.5231685448
 10
-78.6230570412
 20
-79.5231685448
 10
-79.2370457268
 20
-80.4369281769
 10
-79.7715770531
 20
-81.3362410164
 10
-80.2230393219
 20
-82.2283304596
 10
-80.5914325333
 20
-83.102361412
 10
-80.8803683853
 20
-83.9691689682
 10
-81.0862351799
 20
-84.8215297318
 10
-81.209032917
 20
-85.6630554008
 10
-81.2487615967
 20
-86.4937459755
 10
-81.2487615967
 20
-86.4937459755
 10
-81.2343148041
 20
-86.8838093758
 10
-81.1909744263
 20
-87.2630376816
 10
-81.1187404633
 20
-87.6242074966
 10
-81.0212246132
 20
-87.9745422173
 10
-80.8912034798
 20
-88.3104301453
 10
-80.7359004593
 20
-88.6318712807
 10
-80.5480921555
 20
-88.9424773216
 10
-80.3350019646
 20
-89.2350248718
 10
-80.3350019646
 20
-89.2350248718
 10
-80.0930181885
 20
-89.5131256294
 10
-79.8401993179
 20
-89.7514977074
 10
-79.5765453529
 20
-89.957364502
 10
-79.2984445953
 20
-90.1235026169
 10
-79.0131204414
 20
-90.2535237503
 10
-78.7097377968
 20
-90.3438162041
 10
-78.3991317558
 20
-90.4016033745
 10
-78.0740789223
 20
-90.4196618652
 10
-78.0740789223
 20
-90.4196618652
 10
-77.5070423126
 20
-90.3799331856
 10
-76.9363940048
 20
-90.2607471466
 10
-76.365745697
 20
-90.0657154465
 10
-75.7950973892
 20
-89.7876146889
 10
-75.7950973892
 20
-89.7876146889
 10
-75.6253475761
 20
-89.6864871407
 10
-75.4339275742
 20
-89.5636894035
 10
-75.2208373833
 20
-89.4228331757
 10
-74.9860770035
 20
-89.2566950607
 10
-74.7296464348
 20
-89.0688867569
 10
-74.4515456772
 20
-88.8594082642
 10
-74.1553864288
 20
-88.6318712807
 10
-73.8339452934
 20
-88.3790524101
 10
-73.8339452934
 20
-88.3790524101
 10
-73.5377860451
 20
-88.1587388229
 10
-73.2813554764
 20
-88.0034358025
 10
-73.0646535873
 20
-87.9095316505
 10
-72.8840686798
 20
-87.8770263672
 10
-72.8840686798
 20
-87.8770263672
 10
-72.6565316963
 20
-87.9023082542
 10
-72.4506649017
 20
-87.9745422173
 10
-72.2628565979
 20
-88.1009516525
 10
-72.0931067848
 20
-88.2743131638
 10
-71.9522505569
 20
-88.4765682602
 10
-71.8511230087
 20
-88.6896584511
 10
-71.7933358383
 20
-88.9171954346
 10
-71.7716656494
 20
-89.1555675125
 10
-71.7716656494
 20
-89.1555675125
 10
-71.7969475365
 20
-89.4192214775
 10
-71.8764048958
 20
-89.6684286499
 10
-72.0064260292
 20
-89.8995773315
 10
-72.1870109367
 20
-90.1162792206
 10
-72.1870109367
 20
-90.1162792206
 10
-72.9093505669
 20
-90.7844433784
 10
-73.631690197
 20
-91.3623150826
 10
-74.3540298271
 20
-91.8498943329
 10
-75.0799811554
 20
-92.2507928276
 10
-75.8095441818
 20
-92.5613988686
 10
-76.5427189064
 20
-92.7853241539
 10
-77.275893631
 20
-92.9189569855
 10
-78.0090683556
 20
-92.9622973633
 10
-78.0090683556
 20
-92.9622973633
 10
-78.5616581726
 20
-92.9297920799
 10
-79.0925778008
 20
-92.8394996262
 10
-79.60182724
 20
-92.6841966057
 10
-80.0894064903
 20
-92.4711064148
 10
-80.5553155518
 20
-92.1930056572
 10
-80.9995544243
 20
-91.8571177292
 10
-81.4221231079
 20
-91.4562192345
 10
-81.8230216026
 20
-90.9975335693
 10
-81.8230216026
 20
-90.9975335693
 10
-82.1769680214
 20
-90.509954319
 10
-82.480350666
 20
-90.0007048798
 10
-82.7403929329
 20
-89.4733969498
 10
-82.9534831238
 20
-88.9208071327
 10
-83.1160095406
 20
-88.3465471268
 10
-83.2351955795
 20
-87.7506169319
 10
-83.3038178444
 20
-87.1366282463
 10
-83.3290997314
 20
-86.4973576736
 10
-83.3290997314
 20
-86.4973576736
 10
-83.2821476555
 20
-85.4463535118
 10
-83.1376797295
 20
-84.3881259537
 10
-82.8993076515
 20
-83.3262866974
 10
-82.5634197235
 20
-82.2536123466
 10
-82.1300159454
 20
-81.1773262978
 10
-81.6027080154
 20
-80.0938168526
 10
-80.9814959335
 20
-79.0066957092
 10
-80.2627680016
 20
-77.9087394714
 10
-80.2627680016
 20
-77.9087394714
 10
-79.6234974289
 20
-77.0491553116
 10
-78.9806151581
 20
-76.3015337944
 10
-78.3377328873
 20
-75.6730983162
 10
-77.6912389183
 20
-75.1566254807
 10
-77.0447449493
 20
-74.7557269859
 10
-76.3982509804
 20
-74.4667911339
 10
-75.7517570114
 20
-74.2970413208
 10
-75.1016513443
 20
-74.2392541504
 10
-75.1016513443
 20
-74.2392541504
 10
-74.5996253014
 20
-74.253700943
 10
-74.1517747307
 20
-74.2934296227
 10
-73.7544879341
 20
-74.3656635857
 10
-73.4041532135
 20
-74.470402832
 10
-73.4041532135
 20
-74.470402832
 10
-73.2018981171
 20
-74.1670201874
 10
-72.9671377373
 20
-73.9503182983
 10
-72.7107071686
 20
-73.8202971649
 10
-72.4217713165
 20
-73.7769567871
 10
-72.4217713165
 20
-73.7769567871
 10
-72.2447981071
 20
-73.7950152779
 10
-72.0822716904
 20
-73.8491907501
 10
-71.9414154625
 20
-73.9394832039
 10
-71.8150060272
 20
-74.0658926392
 10
-71.7066550827
 20
-74.2284190559
 10
-71.6127509308
 20
-74.4270624542
 10
-71.5405169678
 20
-74.661822834
 10
-71.4827297974
 20
-74.9327001953
 10
-71.4827297974
 20
-74.9327001953
 10
-71.4068841362
 20
-75.4744549179
 10
-71.3527086639
 20
-76.0739968109
 10
-71.3202033806
 20
-76.7349375725
 10
-71.3093682861
 20
-77.4536655045
 10
-71.3093682861
 20
-77.4536655045
 10
-71.3238150787
 20
-77.706484375
 10
-71.3671554565
 20
-77.9412447548
 10
-71.4430011177
 20
-78.161558342
 10
-71.5441286659
 20
-78.3674251366
 10
-71.5441286659
 20
-78.3674251366
 10
-71.7030433846
 20
-78.5841270256
 10
-71.8944633865
 20
-78.7394300461
 10
-72.1147769737
 20
-78.8297224998
 10
-72.3639841461
 20
-78.8622277832
  0
LWPOLYLINE
  5
65
330
1F
100
AcDbEntity
  8
0
  6
Continuous
 62
     7
100
AcDbPolyline
 90
       88
 70
   128
 43
0.0
 10
-62.0417296886
 20
-92.9622973633
 10
-62.7893723488
 20
-92.9297920799
 10
-63.5081002808
 20
-92.835887928
 10
-64.1979346275
 20
-92.6769732094
 10
-64.8588753891
 20
-92.453047924
 10
-65.4909225655
 20
-92.1677237701
 10
-66.0904644585
 20
-91.8173890495
 10
-66.6647244644
 20
-91.4056554604
 10
-67.2100908852
 20
-90.9289113045
 10
-67.2100908852
 20
-90.9289113045
 10
-67.7373988152
 20
-90.3690980911
 10
-68.1960844803
 20
-89.7695561981
 10
-68.5825361824
 20
-89.1302856255
 10
-68.8967539215
 20
-88.4512863731
 10
-69.1423493958
 20
-87.7361701393
 10
-69.3193226051
 20
-86.9777135277
 10
-69.4240618515
 20
-86.1831399345
 10
-69.460178833
 20
-85.3488376617
 10
-69.460178833
 20
-85.3488376617
 10
-69.4240618515
 20
-84.3195036888
 10
-69.3229343033
 20
-83.3154516029
 10
-69.1495727921
 20
-82.3366814041
 10
-68.9039773178
 20
-81.375969696
 10
-68.5933712769
 20
-80.4441515732
 10
-68.214142971
 20
-79.5340036392
 10
-67.7626807022
 20
-78.6491375923
 10
-67.2425961685
 20
-77.7859417343
 10
-67.2425961685
 20
-77.7859417343
 10
-66.9283784294
 20
-77.3272560692
 10
-66.6033255959
 20
-76.9010756874
 10
-66.271049366
 20
-76.5037888908
 10
-65.9279380417
 20
-76.1317839813
 10
-65.5739916229
 20
-75.7922843552
 10
-65.2128218079
 20
-75.4852900124
 10
-64.8408168983
 20
-75.2035775566
 10
-64.4579768944
 20
-74.9507586861
 10
-64.0679134941
 20
-74.7304450989
 10
-63.6670149994
 20
-74.5390250969
 10
-63.2588931084
 20
-74.3764986801
 10
-62.8399361229
 20
-74.2428658485
 10
-62.410144043
 20
-74.1417383003
 10
-61.9731285667
 20
-74.0658926392
 10
-61.5252779961
 20
-74.0225522614
 10
-61.0665923309
 20
-74.0081054688
 10
-61.0665923309
 20
-74.0081054688
 10
-60.2070081711
 20
-74.036999054
 10
-59.4015994835
 20
-74.1200681114
 10
-58.6539779663
 20
-74.2573126411
 10
-57.9641436195
 20
-74.4523443413
 10
-57.3320964432
 20
-74.7051632118
 10
-56.7578364372
 20
-75.0085458565
 10
-56.2413636017
 20
-75.3697156715
 10
-55.7790662384
 20
-75.788672657
 10
-55.7790662384
 20
-75.788672657
 10
-55.3564975548
 20
-76.2834753036
 10
-54.9881043434
 20
-76.8469002151
 10
-54.6774983025
 20
-77.4789473915
 10
-54.4246794319
 20
-78.1760051346
 10
-54.2260360336
 20
-78.9380734444
 10
-54.0851798058
 20
-79.768764019
 10
-54.0021107483
 20
-80.6680768585
 10
-53.9732171631
 20
-81.6324002647
 10
-53.9732171631
 20
-81.6324002647
 10
-54.0057224464
 20
-82.6581225395
 10
-54.0996265984
 20
-83.6621746254
 10
-54.258541317
 20
-84.6373331261
 10
-54.4824666023
 20
-85.5872097397
 10
-54.7677907562
 20
-86.5154161644
 10
-55.1181254768
 20
-87.4147290039
 10
-55.529859066
 20
-88.2887599564
 10
-56.0066032219
 20
-89.1375090218
 10
-56.0066032219
 20
-89.1375090218
 10
-56.3027624702
 20
-89.599806385
 10
-56.6133685112
 20
-90.0332101631
 10
-56.9311979485
 20
-90.437720356
 10
-57.2598624802
 20
-90.8097252655
 10
-57.5993621063
 20
-91.1528365898
 10
-57.9496968269
 20
-91.4670543289
 10
-58.310866642
 20
-91.7523784828
 10
-58.6828715515
 20
-92.0051973534
 10
-59.0657115555
 20
-92.2291226387
 10
-59.4593866539
 20
-92.4241543388
 10
-59.8638968468
 20
-92.5902924538
 10
-60.2792421341
 20
-92.7239252853
 10
-60.7018108177
 20
-92.8286645317
 10
-61.1388262939
 20
-92.9008984947
 10
-61.5830651665
 20
-92.9478505707
 10
-62.0417508316
 20
-92.9622973633
  0
LWPOLYLINE
  5
66
330
1F
100
AcDbEntity
  8
0
  6
Continuous
 62
     7
100
AcDbPolyline
 90
       72
 70
   128
 43
0.0
 10
-61.0521435738
 20
-76.5507409668
 10
-61.716697998
 20
-76.5976930428
 10
-62.3559685707
 20
-76.7313258743
 10
-62.9699572563
 20
-76.9588628578
 10
-63.5550523567
 20
-77.2766922951
 10
-64.1184772682
 20
-77.6848141861
 10
-64.6530085945
 20
-78.1832285309
 10
-65.1586463356
 20
-78.7755470276
 10
-65.6426138878
 20
-79.4545462799
 10
-65.6426138878
 20
-79.4545462799
 10
-66.0507357788
 20
-80.1299338341
 10
-66.4010704994
 20
-80.8197681808
 10
-66.7008414459
 20
-81.5276610184
 10
-66.9464369202
 20
-82.2536123466
 10
-67.134245224
 20
-82.9976221657
 10
-67.2714897537
 20
-83.7560787773
 10
-67.350947113
 20
-84.5325938797
 10
-67.3798406982
 20
-85.3271674728
 10
-67.3798406982
 20
-85.3271674728
 10
-67.3545588112
 20
-85.8869806862
 10
-67.2823248482
 20
-86.4215120125
 10
-67.1559154129
 20
-86.9307614517
 10
-66.9825539017
 20
-87.4111173058
 10
-66.7622403145
 20
-87.8625795746
 10
-66.4913629532
 20
-88.2923716545
 10
-66.1699218178
 20
-88.6932701492
 10
-65.7979169083
 20
-89.0652750587
 10
-65.7979169083
 20
-89.0652750587
 10
-65.407853508
 20
-89.383104496
 10
-64.9961199188
 20
-89.6575935555
 10
-64.5591044426
 20
-89.8923539352
 10
-64.1004187775
 20
-90.0801622391
 10
-63.6236746216
 20
-90.2282418633
 10
-63.1216485786
 20
-90.3365928078
 10
-62.5943406487
 20
-90.3979916763
 10
-62.0489742279
 20
-90.4196618652
 10
-62.0489742279
 20
-90.4196618652
 10
-61.3916451645
 20
-90.3727097893
 10
-60.7632096863
 20
-90.2390769577
 10
-60.1672794914
 20
-90.0115399742
 10
-59.5966311836
 20
-89.6900988388
 10
-59.0584881592
 20
-89.2819769478
 10
-58.5456270218
 20
-88.7799509048
 10
-58.0652711678
 20
-88.1876324081
 10
-57.6138088989
 20
-87.5050214577
 10
-57.6138088989
 20
-87.5050214577
 10
-57.2490273857
 20
-86.8440806961
 10
-56.9311979485
 20
-86.1614697456
 10
-56.6639322853
 20
-85.4608003044
 10
-56.4436186981
 20
-84.7384606743
 10
-56.273868885
 20
-83.9980625534
 10
-56.1510711479
 20
-83.2359942436
 10
-56.0788371849
 20
-82.4558674431
 10
-56.0535552979
 20
-81.6540704536
 10
-56.0535552979
 20
-81.6540704536
 10
-56.0716137886
 20
-80.9714595032
 10
-56.1257892609
 20
-80.3394123268
 10
-56.2196934128
 20
-79.7579289246
 10
-56.3497145462
 20
-79.2342326927
 10
-56.5158526611
 20
-78.761100235
 10
-56.7181077576
 20
-78.3385315514
 10
-56.9600915337
 20
-77.97013834
 10
-57.2381922913
 20
-77.6559206009
 10
-57.2381922913
 20
-77.6559206009
 10
-57.5451866341
 20
-77.395878334
 10
-57.8991330528
 20
-77.1719530487
 10
-58.3036432457
 20
-76.9841447449
 10
-58.7551055145
 20
-76.8252300262
 10
-59.2571315575
 20
-76.7060439873
 10
-59.8061096764
 20
-76.6193632317
 10
-60.4056515694
 20
-76.5687994576
 10
-61.0521455383
 20
-76.5507409668
  0
LWPOLYLINE
  5
67
330
1F
100
AcDbEntity
  8
0
  6
Continuous
 62
     7
100
AcDbPolyline
 90
      167
 70
   128
 43
0.0
 10
-41.1588847637
 20
-78.8622277832
 10
-41.3250502396
 20
-78.8477809906
 10
-41.48035326
 20
-78.8044406128
 10
-41.6248211861
 20
-78.7285949516
 10
-41.7548423195
 20
-78.6238557053
 10
-41.8812517548
 20
-78.4902228737
 10
-41.9932143974
 20
-78.3276964569
 10
-42.0943419456
 20
-78.1362764549
 10
-42.1846343994
 20
-77.9123511696
 10
-42.1846343994
 20
-77.9123511696
 10
-42.3363257217
 20
-77.5439579582
 10
-42.4807936478
 20
-77.2586338043
 10
-42.6216498756
 20
-77.0491553116
 10
-42.7552827072
 20
-76.9227458763
 10
-42.7552827072
 20
-76.9227458763
 10
-42.9105857277
 20
-76.8613470078
 10
-43.1525695038
 20
-76.8180066299
 10
-43.4812340355
 20
-76.7891130447
 10
-43.8929676247
 20
-76.7818896484
 10
-43.8929676247
 20
-76.7818896484
 10
-44.2938661194
 20
-76.8252300262
 10
-44.7092114067
 20
-76.9516394615
 10
-45.1317800903
 20
-77.1683413506
 10
-45.5651838684
 20
-77.4681122971
 10
-46.0130344391
 20
-77.850952301
 10
-46.4717201042
 20
-78.3240847588
 10
-46.9376291656
 20
-78.880286274
 10
-47.4179850197
 20
-79.5231685448
 10
-47.4179850197
 20
-79.5231685448
 10
-48.0319737053
 20
-80.4369281769
 10
-48.5665050316
 20
-81.3362410164
 10
-49.0179673004
 20
-82.2283304596
 10
-49.3863605118
 20
-83.102361412
 10
-49.6752963638
 20
-83.9691689682
 10
-49.8811631584
 20
-84.8215297318
 10
-50.0039608955
 20
-85.6630554008
 10
-50.0436895752
 20
-86.4937459755
 10
-50.0436895752
 20
-86.4937459755
 10
-50.0292427826
 20
-86.8838093758
 10
-49.9859024048
 20
-87.2630376816
 10
-49.9136684418
 20
-87.6242074966
 10
-49.8161525917
 20
-87.9745422173
 10
-49.6861314583
 20
-88.3104301453
 10
-49.5308284378
 20
-88.6318712807
 10
-49.343020134
 20
-88.9424773216
 10
-49.1299299431
 20
-89.2350248718
 10
-49.1299299431
 20
-89.2350248718
 10
-48.887946167
 20
-89.5131256294
 10
-48.6351272964
 20
-89.7514977074
 10
-48.3714733315
 20
-89.957364502
 10
-48.0933725739
 20
-90.1235026169
 10
-47.80804842
 20
-90.2535237503
 10
-47.5046657753
 20
-90.3438162041
 10
-47.1940597343
 20
-90.4016033745
 10
-46.8690069008
 20
-90.4196618652
 10
-46.8690069008
 20
-90.4196618652
 10
-46.3019702911
 20
-90.3799331856
 10
-45.7313219833
 20
-90.2607471466
 10
-45.1606736755
 20
-90.0657154465
 10
-44.5900253677
 20
-89.7876146889
 10
-44.5900253677
 20
-89.7876146889
 10
-44.4202755547
 20
-89.6864871407
 10
-44.2288555527
 20
-89.5636894035
 10
-44.0157653618
 20
-89.4228331757
 10
-43.781004982
 20
-89.2566950607
 10
-43.5245744133
 20
-89.0688867569
 10
-43.2464736557
 20
-88.8594082642
 10
-42.9503144073
 20
-88.6318712807
 10
-42.6288732719
 20
-88.3790524101
 10
-42.6288732719
 20
-88.3790524101
 10
-42.3327140236
 20
-88.1587388229
 10
-42.0762834549
 20
-88.0034358025
 10
-41.8595815659
 20
-87.9095316505
 10
-41.6789966583
 20
-87.8770263672
 10
-41.6789966583
 20
-87.8770263672
 10
-41.4514596748
 20
-87.9023082542
 10
-41.2455928802
 20
-87.9745422173
 10
-41.0577845764
 20
-88.1009516525
 10
-40.8880347633
 20
-88.2743131638
 10
-40.7471785355
 20
-88.4765682602
 10
-40.6460509872
 20
-88.6896584511
 10
-40.5882638168
 20
-88.9171954346
 10
-40.5665936279
 20
-89.1555675125
 10
-40.5665936279
 20
-89.1555675125
 10
-40.591875515
 20
-89.4192214775
 10
-40.6713328743
 20
-89.6684286499
 10
-40.8013540077
 20
-89.8995773315
 10
-40.9819389153
 20
-90.1162792206
 10
-40.9819389153
 20
-90.1162792206
 10
-41.7042785454
 20
-90.7844433784
 10
-42.4266181755
 20
-91.3623150826
 10
-43.1489578056
 20
-91.8498943329
 10
-43.8749091339
 20
-92.2507928276
 10
-44.6044721603
 20
-92.5613988686
 10
-45.3376468849
 20
-92.7853241539
 10
-46.0708216095
 20
-92.9189569855
 10
-46.8039963341
 20
-92.9622973633
 10
-46.8039963341
 20
-92.9622973633
 10
-47.3565861511
 20
-92.9297920799
 10
-47.8875057793
 20
-92.8394996262
 10
-48.3967552185
 20
-92.6841966057
 10
-48.8843344688
 20
-92.4711064148
 10
-49.3502435303
 20
-92.1930056572
 10
-49.7944824028
 20
-91.8571177292
 10
-50.2170510864
 20
-91.4562192345
 10
-50.6179495811
 20
-90.9975335693
 10
-50.6179495811
 20
-90.9975335693
 10
-50.9718959999
 20
-90.509954319
 10
-51.2752786446
 20
-90.0007048798
 10
-51.5353209114
 20
-89.4733969498
 10
-51.7484111023
 20
-88.9208071327
 10
-51.9109375191
 20
-88.3465471268
 10
-52.030123558
 20
-87.7506169319
 10
-52.0987458229
 20
-87.1366282463
 10
-52.12402771
 20
-86.4973576736
 10
-52.12402771
 20
-86.4973576736
 10
-52.077075634
 20
-85.4463535118
 10
-51.932607708
 20
-84.3881259537
 10
-51.69423563
 20
-83.3262866974
 10
-51.358347702
 20
-82.2536123466
 10
-50.924943924
 20
-81.1773262978
 10
-50.397635994
 20
-80.0938168526
 10
-49.776423912
 20
-79.0066957092
 10
-49.0576959801
 20
-77.9087394714
 10
-49.0576959801
 20
-77.9087394714
 10
-48.4184254074
 20
-77.0491553116
 10
-47.7755431366
 20
-76.3015337944
 10
-47.1326608658
 20
-75.6730983162
 10
-46.4861668968
 20
-75.1566254807
 10
-45.8396729279
 20
-74.7557269859
 10
-45.1931789589
 20
-74.4667911339
 10
-44.5466849899
 20
-74.2970413208
 10
-43.8965793228
 20
-74.2392541504
 10
-43.8965793228
 20
-74.2392541504
 10
-43.3945532799
 20
-74.253700943
 10
-42.9467027092
 20
-74.2934296227
 10
-42.5494159126
 20
-74.3656635857
 10
-42.199081192
 20
-74.470402832
 10
-42.199081192
 20
-74.470402832
 10
-41.9968260956
 20
-74.1670201874
 10
-41.7620657158
 20
-73.9503182983
 10
-41.5056351471
 20
-73.8202971649
 10
-41.216699295
 20
-73.7769567871
 10
-41.216699295
 20
-73.7769567871
 10
-41.0397260857
 20
-73.7950152779
 10
-40.8771996689
 20
-73.8491907501
 10
-40.736343441
 20
-73.9394832039
 10
-40.6099340057
 20
-74.0658926392
 10
-40.5015830612
 20
-74.2284190559
 10
-40.4076789093
 20
-74.4270624542
 10
-40.3354449463
 20
-74.661822834
 10
-40.2776577759
 20
-74.9327001953
 10
-40.2776577759
 20
-74.9327001953
 10
-40.2018121147
 20
-75.4744549179
 10
-40.1476366425
 20
-76.0739968109
 10
-40.1151313591
 20
-76.7349375725
 10
-40.1042962646
 20
-77.4536655045
 10
-40.1042962646
 20
-77.4536655045
 10
-40.1187430573
 20
-77.706484375
 10
-40.1620834351
 20
-77.9412447548
 10
-40.2379290962
 20
-78.161558342
 10
-40.3390566444
 20
-78.3674251366
 10
-40.3390566444
 20
-78.3674251366
 10
-40.4979713631
 20
-78.5841270256
 10
-40.6893913651
 20
-78.7394300461
 10
-40.9097049522
 20
-78.8297224998
 10
-41.1589121246
 20
-78.8622277832
  0
LWPOLYLINE
  5
68
330
1F
100
AcDbEntity
  8
0
  6
Continuous
 62
     7
100
AcDbPolyline
 90
       88
 70
   128
 43
0.0
 10
-30.8366715908
 20
-92.9622973633
 10
-31.5843003273
 20
-92.9297920799
 10
-32.3030282593
 20
-92.835887928
 10
-32.992862606
 20
-92.6769732094
 10
-33.6538033676
 20
-92.453047924
 10
-34.285850544
 20
-92.1677237701
 10
-34.885392437
 20
-91.8173890495
 10
-35.4596524429
 20
-91.4056554604
 10
-36.0050188637
 20
-90.9289113045
 10
-36.0050188637
 20
-90.9289113045
 10
-36.5323267937
 20
-90.3690980911
 10
-36.9910124588
 20
-89.7695561981
 10
-37.3774641609
 20
-89.1302856255
 10
-37.6916819
 20
-88.4512863731
 10
-37.9372773743
 20
-87.7361701393
 10
-38.1142505836
 20
-86.9777135277
 10
-38.21898983
 20
-86.1831399345
 10
-38.2551068115
 20
-85.3488376617
 10
-38.2551068115
 20
-85.3488376617
 10
-38.21898983
 20
-84.3195036888
 10
-38.1178622818
 20
-83.3154516029
 10
-37.9445007706
 20
-82.3366814041
 10
-37.6989052963
 20
-81.375969696
 10
-37.3882992554
 20
-80.4441515732
 10
-37.0090709496
 20
-79.5340036392
 10
-36.5576086807
 20
-78.6491375923
 10
-36.037524147
 20
-77.7859417343
 10
-36.037524147
 20
-77.7859417343
 10
-35.7233064079
 20
-77.3272560692
 10
-35.3982535744
 20
-76.9010756874
 10
-35.0659773445
 20
-76.5037888908
 10
-34.7228660202
 20
-76.1317839813
 10
-34.3689196014
 20
-75.7922843552
 10
-34.0077497864
 20
-75.4852900124
 10
-33.6357448769
 20
-75.2035775566
 10
-33.2529048729
 20
-74.9507586861
 10
-32.8628414726
 20
-74.7304450989
 10
-32.4619429779
 20
-74.5390250969
 10
-32.0538210869
 20
-74.3764986801
 10
-31.6348641014
 20
-74.2428658485
 10
-31.2050720215
 20
-74.1417383003
 10
-30.7680565453
 20
-74.0658926392
 10
-30.3202059746
 20
-74.0225522614
 10
-29.8615203094
 20
-74.0081054688
 10
-29.8615203094
 20
-74.0081054688
 10
-29.0019361496
 20
-74.036999054
 10
-28.196527462
 20
-74.1200681114
 10
-27.4489059448
 20
-74.2573126411
 10
-26.7590715981
 20
-74.4523443413
 10
-26.1270244217
 20
-74.7051632118
 10
-25.5527644157
 20
-75.0085458565
 10
-25.0362915802
 20
-75.3697156715
 10
-24.5739942169
 20
-75.788672657
 10
-24.5739942169
 20
-75.788672657
 10
-24.1514255333
 20
-76.2834753036
 10
-23.7830323219
 20
-76.8469002151
 10
-23.472426281
 20
-77.4789473915
 10
-23.2196074104
 20
-78.1760051346
 10
-23.0209640121
 20
-78.9380734444
 10
-22.8801077843
 20
-79.768764019
 10
-22.7970387268
 20
-80.6680768585
 10
-22.7681451416
 20
-81.6324002647
 10
-22.7681451416
 20
-81.6324002647
 10
-22.800650425
 20
-82.6581225395
 10
-22.8945545769
 20
-83.6621746254
 10
-23.0534692955
 20
-84.6373331261
 10
-23.2773945808
 20
-85.5872097397
 10
-23.5627187347
 20
-86.5154161644
 10
-23.9130534554
 20
-87.4147290039
 10
-24.3247870445
 20
-88.2887599564
 10
-24.8015312004
 20
-89.1375090218
 10
-24.8015312004
 20
-89.1375090218
 10
-25.0976904488
 20
-89.599806385
 10
-25.4082964897
 20
-90.0332101631
 10
-25.726125927
 20
-90.437720356
 10
-26.0547904587
 20
-90.8097252655
 10
-26.3942900848
 20
-91.1528365898
 10
-26.7446248055
 20
-91.4670543289
 10
-27.1057946205
 20
-91.7523784828
 10
-27.47779953
 20
-92.0051973534
 10
-27.860639534
 20
-92.2291226387
 10
-28.2543146324
 20
-92.4241543388
 10
-28.6588248253
 20
-92.5902924538
 10
-29.0741701126
 20
-92.7239252853
 10
-29.4967387962
 20
-92.8286645317
 10
-29.9337542725
 20
-92.9008984947
 10
-30.377993145
 20
-92.9478505707
 10
-30.8366788101
 20
-92.9622973633
  0
LWPOLYLINE
  5
69
330
1F
100
AcDbEntity
  8
0
  6
Continuous
 62
     7
100
AcDbPolyline
 90
       72
 70
   128
 43
0.0
 10
-29.8470705748
 20
-76.5507409668
 10
-30.5116259766
 20
-76.5976930428
 10
-31.1508965492
 20
-76.7313258743
 10
-31.7648852348
 20
-76.9588628578
 10
-32.3499803352
 20
-77.2766922951
 10
-32.9134052467
 20
-77.6848141861
 10
-33.447936573
 20
-78.1832285309
 10
-33.9535743141
 20
-78.7755470276
 10
-34.4375418663
 20
-79.4545462799
 10
-34.4375418663
 20
-79.4545462799
 10
-34.8456637573
 20
-80.1299338341
 10
-35.1959984779
 20
-80.8197681808
 10
-35.4957694244
 20
-81.5276610184
 10
-35.7413648987
 20
-82.2536123466
 10
-35.9291732025
 20
-82.9976221657
 10
-36.0664177322
 20
-83.7560787773
 10
-36.1458750916
 20
-84.5325938797
 10
-36.1747686768
 20
-85.3271674728
 10
-36.1747686768
 20
-85.3271674728
 10
-36.1494867897
 20
-85.8869806862
 10
-36.0772528267
 20
-86.4215120125
 10
-35.9508433914
 20
-86.9307614517
 10
-35.7774818802
 20
-87.4111173058
 10
-35.557168293
 20
-87.8625795746
 10
-35.2862909317
 20
-88.2923716545
 10
-34.9648497963
 20
-88.6932701492
 10
-34.5928448868
 20
-89.0652750587
 10
-34.5928448868
 20
-89.0652750587
 10
-34.2027814865
 20
-89.383104496
 10
-33.7910478973
 20
-89.6575935555
 10
-33.3540324211
 20
-89.8923539352
 10
-32.895346756
 20
-90.0801622391
 10
-32.4186026001
 20
-90.2282418633
 10
-31.9165765572
 20
-90.3365928078
 10
-31.3892686272
 20
-90.3979916763
 10
-30.8439022064
 20
-90.4196618652
 10
-30.8439022064
 20
-90.4196618652
 10
-30.186573143
 20
-90.3727097893
 10
-29.5581376648
 20
-90.2390769577
 10
-28.9622074699
 20
-90.0115399742
 10
-28.3915591621
 20
-89.6900988388
 10
-27.8534161377
 20
-89.2819769478
 10
-27.3405550003
 20
-88.7799509048
 10
-26.8601991463
 20
-88.1876324081
 10
-26.4087368774
 20
-87.5050214577
 10
-26.4087368774
 20
-87.5050214577
 10
-26.0439553642
 20
-86.8440806961
 10
-25.726125927
 20
-86.1614697456
 10
-25.4588602638
 20
-85.4608003044
 10
-25.2385466766
 20
-84.7384606743
 10
-25.0687968636
 20
-83.9980625534
 10
-24.9459991264
 20
-83.2359942436
 10
-24.8737651634
 20
-82.4558674431
 10
-24.8484832764
 20
-81.6540704536
 10
-24.8484832764
 20
-81.6540704536
 10
-24.8665417671
 20
-80.9714595032
 10
-24.9207172394
 20
-80.3394123268
 10
-25.0146213913
 20
-79.7579289246
 10
-25.1446425247
 20
-79.2342326927
 10
-25.3107806396
 20
-78.761100235
 10
-25.5130357361
 20
-78.3385315514
 10
-25.7550195122
 20
-77.97013834
 10
-26.0331202698
 20
-77.6559206009
 10
-26.0331202698
 20
-77.6559206009
 10
-26.3401146126
 20
-77.395878334
 10
-26.6940610313
 20
-77.1719530487
 10
-27.0985712242
 20
-76.9841447449
 10
-27.550033493
 20
-76.8252300262
 10
-28.052059536
 20
-76.7060439873
 10
-28.6010376549
 20
-76.6193632317
 10
-29.2005795479
 20
-76.5687994576
 10
-29.8470735168
 20
-76.5507409668
  0
LWPOLYLINE
  5
6A
330
1F
100
AcDbEntity
  8
0
  6
Continuous
 62
     7
100
AcDbPolyline
 90
      107
 70
   128
 43
0.0
 10
-5.4789446294
 20
-92.1243833923
 10
-6.114604969
 20
-92.3735905647
 10
-6.7899925232
 20
-92.5902924538
 10
-7.5123321533
 20
-92.7744890594
 10
-8.2744004631
 20
-92.9261803818
 10
-9.0798091507
 20
-93.0417547226
 10
-9.9285582161
 20
-93.1248237801
 10
-10.8170359612
 20
-93.1753875542
 10
-11.7524657822
 20
-93.1934460449
 10
-11.7524657822
 20
-93.1934460449
 10
-11.9836144638
 20
-93.1609407616
 10
-12.2075397491
 20
-93.0706483078
 10
-12.4278533363
 20
-92.9153452873
 10
-12.6409435272
 20
-92.7022550964
 10
-12.8251401329
 20
-92.453047924
 10
-12.9551612663
 20
-92.2038407516
 10
-13.0346186256
 20
-91.947410183
 10
-13.0599005127
 20
-91.6873679161
 10
-13.0599005127
 20
-91.6873679161
 10
-13.0599005127
 20
-88.1587388229
 10
-13.0599005127
 20
-88.1587388229
 10
-13.0562888145
 20
-87.7000531578
 10
-13.0490654182
 20
-87.1980271149
 10
-13.0382303238
 20
-86.649048996
 10
-13.020171833
 20
-86.0531188011
 10
-12.994889946
 20
-85.4102365303
 10
-12.9696080589
 20
-84.7204021835
 10
-12.9371027756
 20
-83.987227459
 10
-12.8973740959
 20
-83.2071006584
 10
-12.8973740959
 20
-83.2071006584
 10
-12.8540337181
 20
-82.3691866875
 10
-12.8179167366
 20
-81.5926715851
 10
-12.7854114532
 20
-80.8739436531
 10
-12.756517868
 20
-80.2166145897
 10
-12.7348476791
 20
-79.6170726967
 10
-12.7167891884
 20
-79.0789296722
 10
-12.7059540939
 20
-78.6021855164
 10
-12.6987306976
 20
-78.1832285309
 10
-12.6987306976
 20
-78.1832285309
 10
-12.6987306976
 20
-77.8870692825
 10
-12.6951189995
 20
-77.5547930527
 10
-12.6878956032
 20
-77.1900115395
 10
-12.6770605087
 20
-76.7927247429
 10
-12.6626137161
 20
-76.3593209648
 10
-12.6445552254
 20
-75.8934119034
 10
-12.6228850365
 20
-75.3913858604
 10
-12.5976031494
 20
-74.8568545341
 10
-12.5976031494
 20
-74.8568545341
 10
-12.5470393753
 20
-74.5787537766
 10
-12.467582016
 20
-74.3512167931
 10
-12.3664544678
 20
-74.1778552818
 10
-12.2364333344
 20
-74.0550575447
 10
-12.2364333344
 20
-74.0550575447
 10
-11.4671416283
 20
-73.8311322594
 10
-10.6508978462
 20
-73.6722175407
 10
-9.7804785919
 20
-73.5783133888
 10
-8.8594955635
 20
-73.5458081055
 10
-8.8594955635
 20
-73.5458081055
 10
-8.3791397095
 20
-73.5674782944
 10
-7.9060072517
 20
-73.6361005592
 10
-7.4364864922
 20
-73.7516749001
 10
-6.9741891289
 20
-73.9105896187
 10
-6.5155034637
 20
-74.1128447151
 10
-6.0604294968
 20
-74.3656635857
 10
-5.6089672279
 20
-74.661822834
 10
-5.1647283554
 20
-75.0013224602
 10
-5.1647283554
 20
-75.0013224602
 10
-4.6843725014
 20
-75.4311145401
 10
-4.2690272141
 20
-75.8898002052
 10
-3.9186924934
 20
-76.3701560593
 10
-3.6297566414
 20
-76.8721821022
 10
-3.4094430542
 20
-77.4031017303
 10
-3.2469166374
 20
-77.9593032455
 10
-3.1530124855
 20
-78.5371749496
 10
-3.1205072021
 20
-79.1403285408
 10
-3.1205072021
 20
-79.1403285408
 10
-3.1530124855
 20
-79.8987851524
 10
-3.2505283356
 20
-80.6175130844
 10
-3.4130547523
 20
-81.2929006386
 10
-3.6405917358
 20
-81.9285595131
 10
-3.933139286
 20
-82.5244897079
 10
-4.290697403
 20
-83.077079525
 10
-4.7132660866
 20
-83.5863289642
 10
-5.2008453369
 20
-84.0558497238
 10
-5.2008453369
 20
-84.0558497238
 10
-4.4423887253
 20
-84.4531365204
 10
-3.7814479637
 20
-84.875705204
 10
-3.2288581467
 20
-85.3163323784
 10
-2.7737841797
 20
-85.7786297417
 10
-2.4198377609
 20
-86.2625972939
 10
-2.1670188904
 20
-86.7682350349
 10
-2.0153275681
 20
-87.2919312668
 10
-1.9647637939
 20
-87.8409093857
 10
-1.9647637939
 20
-87.8409093857
 10
-1.9864339828
 20
-88.2056908989
 10
-2.0550562477
 20
-88.5704724121
 10
-2.1670188904
 20
-88.928030529
 10
-2.3223219109
 20
-89.2855886459
 10
-2.5245770073
 20
-89.6395350647
 10
-2.7701724815
 20
-89.9898697853
 10
-3.0591083336
 20
-90.3365928078
 10
-3.3949962616
 20
-90.6797041321
 10
-3.3949962616
 20
-90.6797041321
 10
-3.8970223045
 20
-91.1347780991
 10
-4.4134951401
 20
-91.5248414993
 10
-4.9408030701
 20
-91.8571177292
 10
-5.4789460945
 20
-92.1243833923
  0
LWPOLYLINE
  5
6B
330
1F
100
AcDbEntity
  8
0
  6
Continuous
 62
     7
100
AcDbPolyline
 90
       53
 70
   128
 43
0.0
 10
-8.8233724236
 20
-76.0884436035
 10
-9.3831917953
 20
-76.0920553017
 10
-9.8491008568
 20
-76.1065020943
 10
-10.2283291626
 20
-76.1317839813
 10
-10.5172650146
 20
-76.1679009628
 10
-10.5172650146
 20
-76.1679009628
 10
-10.5389352036
 20
-78.1579466438
 10
-10.5389352036
 20
-78.1579466438
 10
-10.7484136963
 20
-82.5606066895
 10
-10.7484136963
 20
-82.5606066895
 10
-10.3800204849
 20
-82.6183938599
 10
-10.0549676514
 20
-82.6653459358
 10
-9.7768668938
 20
-82.7050746155
 10
-9.5457182121
 20
-82.7375798988
 10
-9.3579099083
 20
-82.7628617859
 10
-9.2170536804
 20
-82.7809202766
 10
-9.1195378304
 20
-82.7917553711
 10
-9.0689740562
 20
-82.7917553711
 10
-9.0689740562
 20
-82.7917553711
 10
-8.6608521652
 20
-82.7448032951
 10
-8.270788765
 20
-82.6725693321
 10
-7.9023955536
 20
-82.5750534821
 10
-7.552060833
 20
-82.4522557449
 10
-7.2197846031
 20
-82.3041761208
 10
-6.905566864
 20
-82.1272029114
 10
-6.6130193138
 20
-81.9285595131
 10
-6.3385302544
 20
-81.7046342278
 10
-6.3385302544
 20
-81.7046342278
 10
-6.0712645912
 20
-81.4373685646
 10
-5.8401159096
 20
-81.1520444107
 10
-5.6450842094
 20
-80.8486617661
 10
-5.4861694908
 20
-80.5272206306
 10
-5.3597600555
 20
-80.1877210045
 10
-5.2730792999
 20
-79.8301628876
 10
-5.2189038277
 20
-79.4509345818
 10
-5.2008453369
 20
-79.0572594833
 10
-5.2008453369
 20
-79.0572594833
 10
-5.2189038277
 20
-78.786382122
 10
-5.2730792999
 20
-78.5191164589
 10
-5.3633717537
 20
-78.2554624939
 10
-5.489781189
 20
-77.9990319252
 10
-5.6559193039
 20
-77.7498247528
 10
-5.8545627022
 20
-77.5006175804
 10
-6.0929347801
 20
-77.2586338043
 10
-6.3638121414
 20
-77.0238734245
 10
-6.6563596916
 20
-76.8035598373
 10
-6.95251894
 20
-76.6157515335
 10
-7.2559015846
 20
-76.4532251167
 10
-7.5592842293
 20
-76.3232039833
 10
-7.8698902702
 20
-76.2184647369
 10
-8.1841080093
 20
-76.1462307739
 10
-8.5019374466
 20
-76.1028903961
 10
-8.823378582
 20
-76.0884436035
  0
LWPOLYLINE
  5
6C
330
1F
100
AcDbEntity
  8
0
  6
Continuous
 62
     7
100
AcDbPolyline
 90
       50
 70
   128
 43
0.0
 10
-7.5556710362
 20
-85.5113640785
 10
-8.7403095245
 20
-85.2982738876
 10
-8.7403095245
 20
-85.2982738876
 10
-8.9208944321
 20
-85.3018855858
 10
-9.1809366989
 20
-85.3163323784
 10
-9.4373672676
 20
-85.330779171
 10
-9.6287872696
 20
-85.3343908691
 10
-9.6287872696
 20
-85.3343908691
 10
-10.2499993515
 20
-85.3343908691
 10
-10.9109401131
 20
-85.3343908691
 10
-10.9109401131
 20
-85.3343908691
 10
-10.9398336983
 20
-86.0892357826
 10
-10.9615038872
 20
-86.8007403183
 10
-10.9759506798
 20
-87.4725161743
 10
-10.9795623779
 20
-88.1045633507
 10
-10.9795623779
 20
-88.1045633507
 10
-10.9795623779
 20
-90.6508105469
 10
-10.9795623779
 20
-90.6508105469
 10
-10.2644461441
 20
-90.6110818672
 10
-9.5854468918
 20
-90.5496829987
 10
-8.9389529228
 20
-90.4666139412
 10
-8.3285759354
 20
-90.3618746948
 10
-7.7507042313
 20
-90.2354652596
 10
-7.2053378105
 20
-90.0837739372
 10
-6.6960883713
 20
-89.9140241241
 10
-6.2193442154
 20
-89.718992424
 10
-6.2193442154
 20
-89.718992424
 10
-5.8328925133
 20
-89.527572422
 10
-5.4536642075
 20
-89.2855886459
 10
-5.0852709961
 20
-89.000264492
 10
-4.724101181
 20
-88.664376564
 10
-4.724101181
 20
-88.664376564
 10
-4.4279419327
 20
-88.3573822212
 10
-4.2148517418
 20
-88.0937282562
 10
-4.0884423065
 20
-87.8698029709
 10
-4.0451019287
 20
-87.6856063652
 10
-4.0451019287
 20
-87.6856063652
 10
-4.0667721176
 20
-87.5339150429
 10
-4.1353943825
 20
-87.3786120224
 10
-4.2473570251
 20
-87.2196973038
 10
-4.4026600456
 20
-87.057170887
 10
-4.6013034439
 20
-86.8874210739
 10
-4.8468989182
 20
-86.7140595627
 10
-5.1358347702
 20
-86.5370863533
 10
-5.4717226982
 20
-86.3528897476
 10
-5.4717226982
 20
-86.3528897476
 10
-6.0026423264
 20
-86.0892357826
 10
-6.5263385582
 20
-85.858087101
 10
-7.0464230919
 20
-85.666667099
 10
-7.5556725311
 20
-85.5113640785
  0
LWPOLYLINE
  5
6D
330
1F
100
AcDbEntity
  8
0
  6
Continuous
 62
     7
100
AcDbPolyline
 90
       88
 70
   128
 43
0.0
 10
7.765147835
 20
-92.9622973633
 10
7.0175295067
 20
-92.9297920799
 10
6.2988015747
 20
-92.835887928
 10
5.6089672279
 20
-92.6769732094
 10
4.9480264664
 20
-92.453047924
 10
4.31597929
 20
-92.1677237701
 10
3.716437397
 20
-91.8173890495
 10
3.1421773911
 20
-91.4056554604
 10
2.5968109703
 20
-90.9289113045
 10
2.5968109703
 20
-90.9289113045
 10
2.0695030403
 20
-90.3690980911
 10
1.6108173752
 20
-89.7695561981
 10
1.2243656731
 20
-89.1302856255
 10
0.910147934
 20
-88.4512863731
 10
0.6645524597
 20
-87.7361701393
 10
0.4875792503
 20
-86.9777135277
 10
0.382840004
 20
-86.1831399345
 10
0.3467230225
 20
-85.3488376617
 10
0.3467230225
 20
-85.3488376617
 10
0.382840004
 20
-84.3195036888
 10
0.4839675522
 20
-83.3154516029
 10
0.6573290634
 20
-82.3366814041
 10
0.9029245377
 20
-81.375969696
 10
1.2135305786
 20
-80.4441515732
 10
1.5927588844
 20
-79.5340036392
 10
2.0442211533
 20
-78.6491375923
 10
2.564305687
 20
-77.7859417343
 10
2.564305687
 20
-77.7859417343
 10
2.8785234261
 20
-77.3272560692
 10
3.2035762596
 20
-76.9010756874
 10
3.5358524895
 20
-76.5037888908
 10
3.8789638138
 20
-76.1317839813
 10
4.2329102325
 20
-75.7922843552
 10
4.5940800476
 20
-75.4852900124
 10
4.9660849571
 20
-75.2035775566
 10
5.3489249611
 20
-74.9507586861
 10
5.7389883614
 20
-74.7304450989
 10
6.1398868561
 20
-74.5390250969
 10
6.5480087471
 20
-74.3764986801
 10
6.9669657326
 20
-74.2428658485
 10
7.3967578125
 20
-74.1417383003
 10
7.8337732887
 20
-74.0658926392
 10
8.2816238594
 20
-74.0225522614
 10
8.7403095245
 20
-74.0081054688
 10
8.7403095245
 20
-74.0081054688
 10
9.5998936844
 20
-74.036999054
 10
10.405302372
 20
-74.1200681114
 10
11.1529238892
 20
-74.2573126411
 10
11.8427582359
 20
-74.4523443413
 10
12.4748054123
 20
-74.7051632118
 10
13.0490654182
 20
-75.0085458565
 10
13.5655382538
 20
-75.3697156715
 10
14.0278356171
 20
-75.788672657
 10
14.0278356171
 20
-75.788672657
 10
14.4504043007
 20
-76.2834753036
 10
14.8187975121
 20
-76.8469002151
 10
15.129403553
 20
-77.4789473915
 10
15.3822224236
 20
-78.1760051346
 10
15.5808658218
 20
-78.9380734444
 10
15.7217220497
 20
-79.768764019
 10
15.8047911072
 20
-80.6680768585
 10
15.8336846924
 20
-81.6324002647
 10
15.8336846924
 20
-81.6324002647
 10
15.801179409
 20
-82.6581225395
 10
15.7072752571
 20
-83.6621746254
 10
15.5483605385
 20
-84.6373331261
 10
15.3244352531
 20
-85.5872097397
 10
15.0391110992
 20
-86.5154161644
 10
14.6887763786
 20
-87.4147290039
 10
14.2770427895
 20
-88.2887599564
 10
13.8002986336
 20
-89.1375090218
 10
13.8002986336
 20
-89.1375090218
 10
13.5041393852
 20
-89.599806385
 10
13.1935333443
 20
-90.0332101631
 10
12.875703907
 20
-90.437720356
 10
12.5470393753
 20
-90.8097252655
 10
12.2075397491
 20
-91.1528365898
 10
11.8572050285
 20
-91.4670543289
 10
11.4960352135
 20
-91.7523784828
 10
11.124030304
 20
-92.0051973534
 10
10.7411903
 20
-92.2291226387
 10
10.3475152016
 20
-92.4241543388
 10
9.9430050087
 20
-92.5902924538
 10
9.5276597214
 20
-92.7239252853
 10
9.1050910378
 20
-92.8286645317
 10
8.6680755615
 20
-92.9008984947
 10
8.223836689
 20
-92.9478505707
 10
7.7651510239
 20
-92.9622973633
  0
LWPOLYLINE
  5
6E
330
1F
100
AcDbEntity
  8
0
  6
Continuous
 62
     7
100
AcDbPolyline
 90
       72
 70
   128
 43
0.0
 10
8.7547525764
 20
-76.5507409668
 10
8.0902038574
 20
-76.5976930428
 10
7.4509332848
 20
-76.7313258743
 10
6.8369445992
 20
-76.9588628578
 10
6.2518494987
 20
-77.2766922951
 10
5.6884245872
 20
-77.6848141861
 10
5.153893261
 20
-78.1832285309
 10
4.6482555199
 20
-78.7755470276
 10
4.1642879677
 20
-79.4545462799
 10
4.1642879677
 20
-79.4545462799
 10
3.7561660767
 20
-80.1299338341
 10
3.405831356
 20
-80.8197681808
 10
3.1060604095
 20
-81.5276610184
 10
2.8604649353
 20
-82.2536123466
 10
2.6726566315
 20
-82.9976221657
 10
2.5354121017
 20
-83.7560787773
 10
2.4559547424
 20
-84.5325938797
 10
2.4270611572
 20
-85.3271674728
 10
2.4270611572
 20
-85.3271674728
 10
2.4523430443
 20
-85.8869806862
 10
2.5245770073
 20
-86.4215120125
 10
2.6509864426
 20
-86.9307614517
 10
2.8243479538
 20
-87.4111173058
 10
3.044661541
 20
-87.8625795746
 10
3.3155389023
 20
-88.2923716545
 10
3.6369800377
 20
-88.6932701492
 10
4.0089849472
 20
-89.0652750587
 10
4.0089849472
 20
-89.0652750587
 10
4.3990483475
 20
-89.383104496
 10
4.8107819366
 20
-89.6575935555
 10
5.2477974129
 20
-89.8923539352
 10
5.706483078
 20
-90.0801622391
 10
6.1832272339
 20
-90.2282418633
 10
6.6852532768
 20
-90.3365928078
 10
7.2125612068
 20
-90.3979916763
 10
7.7579276276
 20
-90.4196618652
 10
7.7579276276
 20
-90.4196618652
 10
8.415256691
 20
-90.3727097893
 10
9.0436921692
 20
-90.2390769577
 10
9.639622364
 20
-90.0115399742
 10
10.2102706718
 20
-89.6900988388
 10
10.7484136963
 20
-89.2819769478
 10
11.2612748337
 20
-88.7799509048
 10
11.7416306877
 20
-88.1876324081
 10
12.1930929565
 20
-87.5050214577
 10
12.1930929565
 20
-87.5050214577
 10
12.5578744698
 20
-86.8440806961
 10
12.875703907
 20
-86.1614697456
 10
13.1429695702
 20
-85.4608003044
 10
13.3632831573
 20
-84.7384606743
 10
13.5330329704
 20
-83.9980625534
 10
13.6558307076
 20
-83.2359942436
 10
13.7280646706
 20
-82.4558674431
 10
13.7533465576
 20
-81.6540704536
 10
13.7533465576
 20
-81.6540704536
 10
13.7352880669
 20
-80.9714595032
 10
13.6811125946
 20
-80.3394123268
 10
13.5872084427
 20
-79.7579289246
 10
13.4571873093
 20
-79.2342326927
 10
13.2910491943
 20
-78.761100235
 10
13.0887940979
 20
-78.3385315514
 10
12.8468103218
 20
-77.97013834
 10
12.5687095642
 20
-77.6559206009
 10
12.5687095642
 20
-77.6559206009
 10
12.2617152214
 20
-77.395878334
 10
11.9077688026
 20
-77.1719530487
 10
11.5032586098
 20
-76.9841447449
 10
11.0517963409
 20
-76.8252300262
 10
10.549770298
 20
-76.7060439873
 10
10.0007921791
 20
-76.6193632317
 10
9.4012502861
 20
-76.5687994576
 10
8.7547563171
 20
-76.5507409668
  0
LWPOLYLINE
  5
6F
330
1F
100
AcDbEntity
  8
0
  6
Continuous
 62
     7
100
AcDbPolyline
 90
      225
 70
   128
 43
0.0
 10
33.4009826183
 20
-89.7406626129
 10
33.3901494026
 20
-90.0873856354
 10
33.3612558174
 20
-90.5316245079
 10
33.3106920433
 20
-91.0733792305
 10
33.2384580803
 20
-91.7162615013
 10
33.2384580803
 20
-91.7162615013
 10
33.184282608
 20
-92.0088090515
 10
33.1084369469
 20
-92.2616279221
 10
33.0073093987
 20
-92.4747181129
 10
32.8808999634
 20
-92.6516913223
 10
32.7292086411
 20
-92.7853241539
 10
32.5558471298
 20
-92.882840004
 10
32.3572037315
 20
-92.9442388725
 10
32.1368901443
 20
-92.9622973633
 10
32.1368901443
 20
-92.9622973633
 10
31.9924222183
 20
-92.9478505707
 10
31.840730896
 20
-92.908121891
 10
31.6854278755
 20
-92.8394996262
 10
31.5192897606
 20
-92.7419837761
 10
31.3495399475
 20
-92.619186039
 10
31.16895504
 20
-92.4674947166
 10
30.9847584343
 20
-92.2905215073
 10
30.7933384323
 20
-92.0846547127
 10
30.7933384323
 20
-92.0846547127
 10
30.2263018227
 20
-91.4815011215
 10
29.6484301186
 20
-90.8422305489
 10
29.05972332
 20
-90.174066391
 10
28.460181427
 20
-89.4733969498
 10
27.8498044395
 20
-88.7402222252
 10
27.2322040558
 20
-87.9709305191
 10
26.6037685776
 20
-87.1727452278
 10
25.9608863068
 20
-86.3420546532
 10
25.3107806396
 20
-85.475247097
 10
24.6498398781
 20
-84.5795459557
 10
23.9780640221
 20
-83.6513395309
 10
23.2990647697
 20
-82.6870161247
 10
22.6056187248
 20
-81.6937991333
 10
21.9049492836
 20
-80.6680768585
 10
21.1898330498
 20
-79.6062376022
 10
20.4674934196
 20
-78.5155047607
 10
20.4674934196
 20
-78.5155047607
 10
20.4674934196
 20
-81.2820655441
 10
20.4674934196
 20
-81.2820655441
 10
20.4674934196
 20
-84.0630731201
 10
20.4674934196
 20
-84.0630731201
 10
20.4674934196
 20
-84.3303387833
 10
20.4674934196
 20
-84.6337214279
 10
20.4674934196
 20
-84.9659976578
 10
20.4674934196
 20
-85.3271674728
 10
20.4638817215
 20
-85.7244542694
 10
20.4638817215
 20
-86.1506346512
 10
20.4602700233
 20
-86.6093203163
 10
20.4602700233
 20
-87.1005112648
 10
20.4602700233
 20
-87.5917022133
 10
20.4602700233
 20
-88.0503878784
 10
20.4566583252
 20
-88.4765682602
 10
20.4566583252
 20
-88.8738550568
 10
20.4566583252
 20
-89.23863657
 10
20.4566583252
 20
-89.5709127998
 10
20.4566583252
 20
-89.8742954445
 10
20.4566583252
 20
-90.1451728058
 10
20.4566583252
 20
-90.1451728058
 10
20.453046627
 20
-90.5424596024
 10
20.4385998344
 20
-90.9144645119
 10
20.4169296455
 20
-91.2611875343
 10
20.3880360603
 20
-91.5790169716
 10
20.3519190788
 20
-91.8751762199
 10
20.3049670029
 20
-92.1424418831
 10
20.2471798325
 20
-92.3880373573
 10
20.1857809639
 20
-92.6047392464
 10
20.1135470009
 20
-92.7961592484
 10
20.0304779434
 20
-92.9622973633
 10
19.9437971878
 20
-93.1031535912
 10
19.8462813377
 20
-93.218727932
 10
19.7379303932
 20
-93.3090203857
 10
19.6259677505
 20
-93.3740309525
 10
19.4995583153
 20
-93.410147934
 10
19.3695371819
 20
-93.4245947266
 10
19.3695371819
 20
-93.4245947266
 10
19.0986598206
 20
-93.3993128395
 10
18.8566760445
 20
-93.316243782
 10
18.6435858536
 20
-93.1862226486
 10
18.4593892479
 20
-92.9984143448
 10
18.4593892479
 20
-92.9984143448
 10
18.3221447182
 20
-92.7997709465
 10
18.2282405663
 20
-92.5830690575
 10
18.1668416977
 20
-92.3483086777
 10
18.1487832069
 20
-92.0954898071
 10
18.1487832069
 20
-92.0954898071
 10
18.1523949051
 20
-91.8065539551
 10
18.1668416977
 20
-91.4526075363
 10
18.1885118866
 20
-91.0300388527
 10
18.2174054718
 20
-90.5460713005
 10
18.2499107552
 20
-90.0621037483
 10
18.2715809441
 20
-89.6395350647
 10
18.2860277367
 20
-89.2855886459
 10
18.2896394348
 20
-88.9966527939
 10
18.2896394348
 20
-88.9966527939
 10
18.293251133
 20
-88.5704724121
 10
18.3004745293
 20
-88.0539995766
 10
18.3149213219
 20
-87.440010891
 10
18.3329798126
 20
-86.7357297516
 10
18.3510383034
 20
-86.0278369141
 10
18.365485096
 20
-85.4174599266
 10
18.3727084923
 20
-84.8973753929
 10
18.3763201904
 20
-84.4748067093
 10
18.3763201904
 20
-84.4748067093
 10
18.3727084923
 20
-84.0197327423
 10
18.3690967941
 20
-83.4635312271
 10
18.3582616997
 20
-82.8025904655
 10
18.3438149071
 20
-82.0405221558
 10
18.3293681145
 20
-81.278453846
 10
18.31853302
 20
-80.6175130844
 10
18.3149213219
 20
-80.0613115692
 10
18.3113096237
 20
-79.6062376022
 10
18.3113096237
 20
-79.6062376022
 10
18.3040862274
 20
-79.1764455223
 10
18.2788043404
 20
-78.6491375923
 10
18.2390756607
 20
-78.0315372086
 10
18.1812884903
 20
-77.3200326729
 10
18.1235013199
 20
-76.6085281372
 10
18.0837726402
 20
-75.9909277534
 10
18.0584907532
 20
-75.4636198235
 10
18.0512673569
 20
-75.0338277435
 10
18.0512673569
 20
-75.0338277435
 10
18.0765492439
 20
-74.7593386841
 10
18.1596183014
 20
-74.4992964172
 10
18.293251133
 20
-74.2500892448
 10
18.4810594368
 20
-74.0117171669
 10
18.7049847221
 20
-73.8094620705
 10
18.9397451019
 20
-73.6613824463
 10
19.1925639725
 20
-73.5747016907
 10
19.4562179375
 20
-73.5458081055
 10
19.4562179375
 20
-73.5458081055
 10
19.6042975616
 20
-73.5674782944
 10
19.7632122803
 20
-73.6324888611
 10
19.9293503952
 20
-73.7444515038
 10
20.1063236046
 20
-73.8997545242
 10
20.2869085121
 20
-74.0983979225
 10
20.4783285141
 20
-74.3403816986
 10
20.6769719124
 20
-74.6293175507
 10
20.8864504051
 20
-74.9615937805
 10
20.8864504051
 20
-74.9615937805
 10
21.5582262611
 20
-76.0776085091
 10
22.2119436264
 20
-77.1430594635
 10
22.8512141991
 20
-78.161558342
 10
23.4688145828
 20
-79.1331051445
 10
24.071968174
 20
-80.0576998711
 10
24.6606749725
 20
-80.9317308235
 10
25.2277115822
 20
-81.7588097
 10
25.7803013992
 20
-82.5353248024
 10
25.7803013992
 20
-82.5353248024
 10
27.0732893372
 20
-84.3050568962
 10
28.4276761436
 20
-86.0314486122
 10
29.8434618187
 20
-87.7217233467
 10
31.3206463623
 20
-89.3722694016
 10
31.3206463623
 20
-89.3722694016
 10
31.3206463623
 20
-89.0761101532
 10
31.313422966
 20
-88.7149403381
 10
31.3061995697
 20
-88.2887599564
 10
31.2953644753
 20
-87.801180706
 10
31.2953644753
 20
-87.801180706
 10
31.2736942863
 20
-86.2409271049
 10
31.2736942863
 20
-86.2409271049
 10
31.2700825882
 20
-84.9190455818
 10
31.2556357956
 20
-83.6621746254
 10
31.2339656067
 20
-82.477537632
 10
31.2050720215
 20
-81.3615229034
 10
31.16895504
 20
-80.3141304398
 10
31.122002964
 20
-79.3389719391
 10
31.0678274918
 20
-78.4288240051
 10
31.002816925
 20
-77.5909100342
 10
31.002816925
 20
-77.5909100342
 10
30.977535038
 20
-77.3886549377
 10
30.9341946602
 20
-77.106942482
 10
30.8691840935
 20
-76.7421609688
 10
30.786115036
 20
-76.2943103981
 10
30.786115036
 20
-76.2943103981
 10
30.7174927711
 20
-75.8970236015
 10
30.666928997
 20
-75.5430771828
 10
30.6380354118
 20
-75.2396945381
 10
30.6272003174
 20
-74.9796522713
 10
30.6272003174
 20
-74.9796522713
 10
30.6452588081
 20
-74.6437643433
 10
30.6922108841
 20
-74.3512167931
 10
30.7752799416
 20
-74.1056213188
 10
30.8908542824
 20
-73.9033662224
 10
31.0389339066
 20
-73.7480632019
 10
31.2195188141
 20
-73.6361005592
 10
31.432609005
 20
-73.5674782944
 10
31.6782044792
 20
-73.5458081055
 10
31.6782044792
 20
-73.5458081055
 10
31.887682972
 20
-73.5783133888
 10
32.0827146721
 20
-73.6722175407
 10
32.2632995796
 20
-73.8275205612
 10
32.4330493927
 20
-74.0478341484
 10
32.5883524132
 20
-74.3295466042
 10
32.7292086411
 20
-74.6726579285
 10
32.8556180763
 20
-75.0807798195
 10
32.9711924171
 20
-75.5466888809
 10
33.0723199654
 20
-76.0812202072
 10
33.159000721
 20
-76.6735387039
 10
33.231234684
 20
-77.3308677673
 10
33.2926335526
 20
-78.0532073975
 10
33.3395856285
 20
-78.833334198
 10
33.37570261
 20
-79.6784715652
 10
33.3937611008
 20
-80.5850078011
 10
33.4009844971
 20
-81.5565546036
 10
33.4009844971
 20
-81.5565546036
 10
33.4009844971
 20
-81.9213361168
 10
33.4009844971
 20
-82.3258463097
 10
33.4009844971
 20
-82.7736968803
 10
33.4009844971
 20
-83.2648878288
 10
33.4009844971
 20
-83.795807457
 10
33.4009844971
 20
-84.3700674629
 10
33.4009844971
 20
-84.9876678467
 10
33.4009844971
 20
-85.6486086082
 10
33.4009844971
 20
-86.3095493698
 10
33.4009844971
 20
-86.9271497536
 10
33.4009844971
 20
-87.5014097595
 10
33.4009844971
 20
-88.0323293877
 10
33.4009844971
 20
-88.5235203362
 10
33.4009844971
 20
-88.9713709068
 10
33.4009844971
 20
-89.3758810997
 10
33.4009844971
 20
-89.7406626129
  0
LWPOLYLINE
  5
70
330
1F
100
AcDbEntity
  8
0
  6
Continuous
 62
     7
100
AcDbPolyline
 90
      107
 70
   128
 43
0.0
 10
44.2180037498
 20
-92.1243833923
 10
43.5823615837
 20
-92.3735905647
 10
42.9069740295
 20
-92.5902924538
 10
42.1846343994
 20
-92.7744890594
 10
41.4225660896
 20
-92.9261803818
 10
40.617157402
 20
-93.0417547226
 10
39.7684083366
 20
-93.1248237801
 10
38.8799305916
 20
-93.1753875542
 10
37.9445007706
 20
-93.1934460449
 10
37.9445007706
 20
-93.1934460449
 10
37.7133520889
 20
-93.1609407616
 10
37.4894268036
 20
-93.0706483078
 10
37.2691132164
 20
-92.9153452873
 10
37.0560230255
 20
-92.7022550964
 10
36.8718264198
 20
-92.453047924
 10
36.7418052864
 20
-92.2038407516
 10
36.6623479271
 20
-91.947410183
 10
36.63706604
 20
-91.6873679161
 10
36.63706604
 20
-91.6873679161
 10
36.63706604
 20
-88.1587388229
 10
36.63706604
 20
-88.1587388229
 10
36.6406777382
 20
-87.7000531578
 10
36.6479011345
 20
-87.1980271149
 10
36.6587362289
 20
-86.649048996
 10
36.6767947197
 20
-86.0531188011
 10
36.7020766068
 20
-85.4102365303
 10
36.7273584938
 20
-84.7204021835
 10
36.7598637772
 20
-83.987227459
 10
36.7995924568
 20
-83.2071006584
 10
36.7995924568
 20
-83.2071006584
 10
36.8429328346
 20
-82.3691866875
 10
36.8790498161
 20
-81.5926715851
 10
36.9115550995
 20
-80.8739436531
 10
36.9404486847
 20
-80.2166145897
 10
36.9621188736
 20
-79.6170726967
 10
36.9801773643
 20
-79.0789296722
 10
36.9910124588
 20
-78.6021855164
 10
36.9982358551
 20
-78.1832285309
 10
36.9982358551
 20
-78.1832285309
 10
36.9982358551
 20
-77.8870692825
 10
37.0018475533
 20
-77.5547930527
 10
37.0090709496
 20
-77.1900115395
 10
37.019906044
 20
-76.7927247429
 10
37.0343528366
 20
-76.3593209648
 10
37.0524113274
 20
-75.8934119034
 10
37.0740815163
 20
-75.3913858604
 10
37.0993634033
 20
-74.8568545341
 10
37.0993634033
 20
-74.8568545341
 10
37.1499271774
 20
-74.5787537766
 10
37.2293845367
 20
-74.3512167931
 10
37.330512085
 20
-74.1778552818
 10
37.4605332184
 20
-74.0550575447
 10
37.4605332184
 20
-74.0550575447
 10
38.2298249245
 20
-73.8311322594
 10
39.0460687065
 20
-73.6722175407
 10
39.9164879608
 20
-73.5783133888
 10
40.8374709892
 20
-73.5458081055
 10
40.8374709892
 20
-73.5458081055
 10
41.3178268433
 20
-73.5674782944
 10
41.790959301
 20
-73.6361005592
 10
42.2604800606
 20
-73.7516749001
 10
42.7227774239
 20
-73.9105896187
 10
43.181463089
 20
-74.1128447151
 10
43.636537056
 20
-74.3656635857
 10
44.0879993248
 20
-74.661822834
 10
44.5322381973
 20
-75.0013224602
 10
44.5322381973
 20
-75.0013224602
 10
45.0125940514
 20
-75.4311145401
 10
45.4279393387
 20
-75.8898002052
 10
45.7782740593
 20
-76.3701560593
 10
46.0672099113
 20
-76.8721821022
 10
46.2875234985
 20
-77.4031017303
 10
46.4500499153
 20
-77.9593032455
 10
46.5439540672
 20
-78.5371749496
 10
46.5764593506
 20
-79.1403285408
 10
46.5764593506
 20
-79.1403285408
 10
46.5439540672
 20
-79.8987851524
 10
46.4464382172
 20
-80.6175130844
 10
46.2839118004
 20
-81.2929006386
 10
46.0563748169
 20
-81.9285595131
 10
45.7638272667
 20
-82.5244897079
 10
45.4062691498
 20
-83.077079525
 10
44.9837004662
 20
-83.5863289642
 10
44.4961212158
 20
-84.0558497238
 10
44.4961212158
 20
-84.0558497238
 10
45.2545778275
 20
-84.4531365204
 10
45.915518589
 20
-84.875705204
 10
46.4681084061
 20
-85.3163323784
 10
46.923182373
 20
-85.7786297417
 10
47.2771287918
 20
-86.2625972939
 10
47.5299476624
 20
-86.7682350349
 10
47.6816389847
 20
-87.2919312668
 10
47.7322027588
 20
-87.8409093857
 10
47.7322027588
 20
-87.8409093857
 10
47.7105325699
 20
-88.2056908989
 10
47.641910305
 20
-88.5704724121
 10
47.5299476624
 20
-88.928030529
 10
47.3746446419
 20
-89.2855886459
 10
47.1723895454
 20
-89.6395350647
 10
46.9267940712
 20
-89.9898697853
 10
46.6378582191
 20
-90.3365928078
 10
46.3019702911
 20
-90.6797041321
 10
46.3019702911
 20
-90.6797041321
 10
45.7999442482
 20
-91.1347780991
 10
45.2834714127
 20
-91.5248414993
 10
44.7561634827
 20
-91.8571177292
 10
44.2180204582
 20
-92.1243833923
  0
LWPOLYLINE
  5
71
330
1F
100
AcDbEntity
  8
0
  6
Continuous
 62
     7
100
AcDbPolyline
 90
       53
 70
   128
 43
0.0
 10
40.8735871315
 20
-76.0884436035
 10
40.3137747574
 20
-76.0920553017
 10
39.847865696
 20
-76.1065020943
 10
39.4686373901
 20
-76.1317839813
 10
39.1797015381
 20
-76.1679009628
 10
39.1797015381
 20
-76.1679009628
 10
39.1580313492
 20
-78.1579466438
 10
39.1580313492
 20
-78.1579466438
 10
38.9485528564
 20
-82.5606066895
 10
38.9485528564
 20
-82.5606066895
 10
39.3169460678
 20
-82.6183938599
 10
39.6419989014
 20
-82.6653459358
 10
39.920099659
 20
-82.7050746155
 10
40.1512483406
 20
-82.7375798988
 10
40.3390566444
 20
-82.7628617859
 10
40.4799128723
 20
-82.7809202766
 10
40.5774287224
 20
-82.7917553711
 10
40.6279924965
 20
-82.7917553711
 10
40.6279924965
 20
-82.7917553711
 10
41.0361143875
 20
-82.7448032951
 10
41.4261777878
 20
-82.6725693321
 10
41.7945709991
 20
-82.5750534821
 10
42.1449057198
 20
-82.4522557449
 10
42.4771819496
 20
-82.3041761208
 10
42.7913996887
 20
-82.1272029114
 10
43.0839472389
 20
-81.9285595131
 10
43.3584362984
 20
-81.7046342278
 10
43.3584362984
 20
-81.7046342278
 10
43.6257019615
 20
-81.4373685646
 10
43.8568506432
 20
-81.1520444107
 10
44.0518823433
 20
-80.8486617661
 10
44.2107970619
 20
-80.5272206306
 10
44.3372064972
 20
-80.1877210045
 10
44.4238872528
 20
-79.8301628876
 10
44.4780627251
 20
-79.4509345818
 10
44.4961212158
 20
-79.0572594833
 10
44.4961212158
 20
-79.0572594833
 10
44.4780627251
 20
-78.786382122
 10
44.4238872528
 20
-78.5191164589
 10
44.333594799
 20
-78.2554624939
 10
44.2071853638
 20
-77.9990319252
 10
44.0410472488
 20
-77.7498247528
 10
43.8424038506
 20
-77.5006175804
 10
43.6040317726
 20
-77.2586338043
 10
43.3331544113
 20
-77.0238734245
 10
43.0406068611
 20
-76.8035598373
 10
42.7444476128
 20
-76.6157515335
 10
42.4410649681
 20
-76.4532251167
 10
42.1376823235
 20
-76.3232039833
 10
41.8270762825
 20
-76.2184647369
 10
41.5128585434
 20
-76.1462307739
 10
41.1950291061
 20
-76.1028903961
 10
40.8735879707
 20
-76.0884436035
  0
LWPOLYLINE
  5
72
330
1F
100
AcDbEntity
  8
0
  6
Continuous
 62
     7
100
AcDbPolyline
 90
       50
 70
   128
 43
0.0
 10
42.1412885189
 20
-85.5113640785
 10
40.9566570282
 20
-85.2982738876
 10
40.9566570282
 20
-85.2982738876
 10
40.7760721207
 20
-85.3018855858
 10
40.5160298538
 20
-85.3163323784
 10
40.2595992851
 20
-85.330779171
 10
40.0681792831
 20
-85.3343908691
 10
40.0681792831
 20
-85.3343908691
 10
39.4469672012
 20
-85.3343908691
 10
38.7860264397
 20
-85.3343908691
 10
38.7860264397
 20
-85.3343908691
 10
38.7571328545
 20
-86.0892357826
 10
38.7354626656
 20
-86.8007403183
 10
38.721015873
 20
-87.4725161743
 10
38.7174041748
 20
-88.1045633507
 10
38.7174041748
 20
-88.1045633507
 10
38.7174041748
 20
-90.6508105469
 10
38.7174041748
 20
-90.6508105469
 10
39.4325204086
 20
-90.6110818672
 10
40.1115196609
 20
-90.5496829987
 10
40.7580136299
 20
-90.4666139412
 10
41.3683906174
 20
-90.3618746948
 10
41.9462623215
 20
-90.2354652596
 10
42.4916287422
 20
-90.0837739372
 10
43.0008781815
 20
-89.9140241241
 10
43.4776223373
 20
-89.718992424
 10
43.4776223373
 20
-89.718992424
 10
43.8640740395
 20
-89.527572422
 10
44.2433023453
 20
-89.2855886459
 10
44.6116955566
 20
-89.000264492
 10
44.9728653717
 20
-88.664376564
 10
44.9728653717
 20
-88.664376564
 10
45.2690246201
 20
-88.3573822212
 10
45.4821148109
 20
-88.0937282562
 10
45.6085242462
 20
-87.8698029709
 10
45.651864624
 20
-87.6856063652
 10
45.651864624
 20
-87.6856063652
 10
45.6301944351
 20
-87.5339150429
 10
45.5615721703
 20
-87.3786120224
 10
45.4496095276
 20
-87.2196973038
 10
45.2943065071
 20
-87.057170887
 10
45.0956631088
 20
-86.8874210739
 10
44.8500676346
 20
-86.7140595627
 10
44.5611317825
 20
-86.5370863533
 10
44.2252438545
 20
-86.3528897476
 10
44.2252438545
 20
-86.3528897476
 10
43.6943242264
 20
-86.0892357826
 10
43.1706279945
 20
-85.858087101
 10
42.6505434608
 20
-85.666667099
 10
42.1412940216
 20
-85.5113640785
  0
LWPOLYLINE
  5
73
330
1F
100
AcDbEntity
  8
0
  6
Continuous
 62
     7
100
AcDbPolyline
 90
       88
 70
   128
 43
0.0
 10
57.4620962143
 20
-92.9622973633
 10
56.7144960594
 20
-92.9297920799
 10
55.9957681274
 20
-92.835887928
 10
55.3059337807
 20
-92.6769732094
 10
54.6449930191
 20
-92.453047924
 10
54.0129458427
 20
-92.1677237701
 10
53.4134039497
 20
-91.8173890495
 10
52.8391439438
 20
-91.4056554604
 10
52.293777523
 20
-90.9289113045
 10
52.293777523
 20
-90.9289113045
 10
51.766469593
 20
-90.3690980911
 10
51.3077839279
 20
-89.7695561981
 10
50.9213322258
 20
-89.1302856255
 10
50.6071144867
 20
-88.4512863731
 10
50.3615190125
 20
-87.7361701393
 10
50.1845458031
 20
-86.9777135277
 10
50.0798065567
 20
-86.1831399345
 10
50.0436895752
 20
-85.3488376617
 10
50.0436895752
 20
-85.3488376617
 10
50.0798065567
 20
-84.3195036888
 10
50.1809341049
 20
-83.3154516029
 10
50.3542956161
 20
-82.3366814041
 10
50.5998910904
 20
-81.375969696
 10
50.9104971313
 20
-80.4441515732
 10
51.2897254372
 20
-79.5340036392
 10
51.741187706
 20
-78.6491375923
 10
52.2612722397
 20
-77.7859417343
 10
52.2612722397
 20
-77.7859417343
 10
52.5754899788
 20
-77.3272560692
 10
52.9005428123
 20
-76.9010756874
 10
53.2328190422
 20
-76.5037888908
 10
53.5759303665
 20
-76.1317839813
 10
53.9298767853
 20
-75.7922843552
 10
54.2910466003
 20
-75.4852900124
 10
54.6630515099
 20
-75.2035775566
 10
55.0458915138
 20
-74.9507586861
 10
55.4359549141
 20
-74.7304450989
 10
55.8368534088
 20
-74.5390250969
 10
56.2449752998
 20
-74.3764986801
 10
56.6639322853
 20
-74.2428658485
 10
57.0937243652
 20
-74.1417383003
 10
57.5307398415
 20
-74.0658926392
 10
57.9785904121
 20
-74.0225522614
 10
58.4372760773
 20
-74.0081054688
 10
58.4372760773
 20
-74.0081054688
 10
59.2968602371
 20
-74.036999054
 10
60.1022689247
 20
-74.1200681114
 10
60.8498904419
 20
-74.2573126411
 10
61.5397247887
 20
-74.4523443413
 10
62.171771965
 20
-74.7051632118
 10
62.746031971
 20
-75.0085458565
 10
63.2625048065
 20
-75.3697156715
 10
63.7248021698
 20
-75.788672657
 10
63.7248021698
 20
-75.788672657
 10
64.1473708534
 20
-76.2834753036
 10
64.5157640648
 20
-76.8469002151
 10
64.8263701057
 20
-77.4789473915
 10
65.0791889763
 20
-78.1760051346
 10
65.2778323746
 20
-78.9380734444
 10
65.4186886024
 20
-79.768764019
 10
65.5017576599
 20
-80.6680768585
 10
65.5306512451
 20
-81.6324002647
 10
65.5306512451
 20
-81.6324002647
 10
65.4981459618
 20
-82.6581225395
 10
65.4042418098
 20
-83.6621746254
 10
65.2453270912
 20
-84.6373331261
 10
65.0214018059
 20
-85.5872097397
 10
64.736077652
 20
-86.5154161644
 10
64.3857429314
 20
-87.4147290039
 10
63.9740093422
 20
-88.2887599564
 10
63.4972651863
 20
-89.1375090218
 10
63.4972651863
 20
-89.1375090218
 10
63.201105938
 20
-89.599806385
 10
62.890499897
 20
-90.0332101631
 10
62.5726704597
 20
-90.437720356
 10
62.244005928
 20
-90.8097252655
 10
61.9045063019
 20
-91.1528365898
 10
61.5541715813
 20
-91.4670543289
 10
61.1930017662
 20
-91.7523784828
 10
60.8209968567
 20
-92.0051973534
 10
60.4381568527
 20
-92.2291226387
 10
60.0444817543
 20
-92.4241543388
 10
59.6399715614
 20
-92.5902924538
 10
59.2246262741
 20
-92.7239252853
 10
58.8020575905
 20
-92.8286645317
 10
58.3650421143
 20
-92.9008984947
 10
57.9208032417
 20
-92.9478505707
 10
57.4621175766
 20
-92.9622973633
  0
LWPOLYLINE
  5
74
330
1F
100
AcDbEntity
  8
0
  6
Continuous
 62
     7
100
AcDbPolyline
 90
       72
 70
   128
 43
0.0
 10
58.4517121315
 20
-76.5507409668
 10
57.7871704102
 20
-76.5976930428
 10
57.1478998375
 20
-76.7313258743
 10
56.5339111519
 20
-76.9588628578
 10
55.9488160515
 20
-77.2766922951
 10
55.38539114
 20
-77.6848141861
 10
54.8508598137
 20
-78.1832285309
 10
54.3452220726
 20
-78.7755470276
 10
53.8612545204
 20
-79.4545462799
 10
53.8612545204
 20
-79.4545462799
 10
53.4531326294
 20
-80.1299338341
 10
53.1027979088
 20
-80.8197681808
 10
52.8030269623
 20
-81.5276610184
 10
52.557431488
 20
-82.2536123466
 10
52.3696231842
 20
-82.9976221657
 10
52.2323786545
 20
-83.7560787773
 10
52.1529212952
 20
-84.5325938797
 10
52.12402771
 20
-85.3271674728
 10
52.12402771
 20
-85.3271674728
 10
52.149309597
 20
-85.8869806862
 10
52.22154356
 20
-86.4215120125
 10
52.3479529953
 20
-86.9307614517
 10
52.5213145065
 20
-87.4111173058
 10
52.7416280937
 20
-87.8625795746
 10
53.012505455
 20
-88.2923716545
 10
53.3339465904
 20
-88.6932701492
 10
53.7059514999
 20
-89.0652750587
 10
53.7059514999
 20
-89.0652750587
 10
54.0960149002
 20
-89.383104496
 10
54.5077484894
 20
-89.6575935555
 10
54.9447639656
 20
-89.8923539352
 10
55.4034496307
 20
-90.0801622391
 10
55.8801937866
 20
-90.2282418633
 10
56.3822198296
 20
-90.3365928078
 10
56.9095277596
 20
-90.3979916763
 10
57.4548941803
 20
-90.4196618652
 10
57.4548941803
 20
-90.4196618652
 10
58.1122232437
 20
-90.3727097893
 10
58.7406587219
 20
-90.2390769577
 10
59.3365889168
 20
-90.0115399742
 10
59.9072372246
 20
-89.6900988388
 10
60.445380249
 20
-89.2819769478
 10
60.9582413864
 20
-88.7799509048
 10
61.4385972404
 20
-88.1876324081
 10
61.8900595093
 20
-87.5050214577
 10
61.8900595093
 20
-87.5050214577
 10
62.2548410225
 20
-86.8440806961
 10
62.5726704597
 20
-86.1614697456
 10
62.8399361229
 20
-85.4608003044
 10
63.0602497101
 20
-84.7384606743
 10
63.2299995232
 20
-83.9980625534
 10
63.3527972603
 20
-83.2359942436
 10
63.4250312233
 20
-82.4558674431
 10
63.4503131104
 20
-81.6540704536
 10
63.4503131104
 20
-81.6540704536
 10
63.4322546196
 20
-80.9714595032
 10
63.3780791473
 20
-80.3394123268
 10
63.2841749954
 20
-79.7579289246
 10
63.154153862
 20
-79.2342326927
 10
62.9880157471
 20
-78.761100235
 10
62.7857606506
 20
-78.3385315514
 10
62.5437768745
 20
-77.97013834
 10
62.2656761169
 20
-77.6559206009
 10
62.2656761169
 20
-77.6559206009
 10
61.9586817741
 20
-77.395878334
 10
61.6047353554
 20
-77.1719530487
 10
61.2002251625
 20
-76.9841447449
 10
60.7487628937
 20
-76.8252300262
 10
60.2467368507
 20
-76.7060439873
 10
59.6977587318
 20
-76.6193632317
 10
59.0982168388
 20
-76.5687994576
 10
58.4517228699
 20
-76.5507409668
  0
LWPOLYLINE
  5
75
330
1F
100
AcDbEntity
  8
0
  6
Continuous
 62
     7
100
AcDbPolyline
 90
      225
 70
   128
 43
0.0
 10
83.0979347229
 20
-89.7406626129
 10
83.0871159554
 20
-90.0873856354
 10
83.0582223701
 20
-90.5316245079
 10
83.007658596
 20
-91.0733792305
 10
82.935424633
 20
-91.7162615013
 10
82.935424633
 20
-91.7162615013
 10
82.8812491608
 20
-92.0088090515
 10
82.8054034996
 20
-92.2616279221
 10
82.7042759514
 20
-92.4747181129
 10
82.5778665161
 20
-92.6516913223
 10
82.4261751938
 20
-92.7853241539
 10
82.2528136826
 20
-92.882840004
 10
82.0541702843
 20
-92.9442388725
 10
81.8338566971
 20
-92.9622973633
 10
81.8338566971
 20
-92.9622973633
 10
81.6893887711
 20
-92.9478505707
 10
81.5376974487
 20
-92.908121891
 10
81.3823944283
 20
-92.8394996262
 10
81.2162563133
 20
-92.7419837761
 10
81.0465065002
 20
-92.619186039
 10
80.8659215927
 20
-92.4674947166
 10
80.681724987
 20
-92.2905215073
 10
80.490304985
 20
-92.0846547127
 10
80.490304985
 20
-92.0846547127
 10
79.9232683754
 20
-91.4815011215
 10
79.3453966713
 20
-90.8422305489
 10
78.7566898727
 20
-90.174066391
 10
78.1571479797
 20
-89.4733969498
 10
77.5467709923
 20
-88.7402222252
 10
76.9291706085
 20
-87.9709305191
 10
76.3007351303
 20
-87.1727452278
 10
75.6578528595
 20
-86.3420546532
 10
75.0077471924
 20
-85.475247097
 10
74.3468064308
 20
-84.5795459557
 10
73.6750305748
 20
-83.6513395309
 10
72.9960313225
 20
-82.6870161247
 10
72.3025852776
 20
-81.6937991333
 10
71.6019158363
 20
-80.6680768585
 10
70.8867996025
 20
-79.6062376022
 10
70.1644599724
 20
-78.5155047607
 10
70.1644599724
 20
-78.5155047607
 10
70.1644599724
 20
-81.2820655441
 10
70.1644599724
 20
-81.2820655441
 10
70.1644599724
 20
-84.0630731201
 10
70.1644599724
 20
-84.0630731201
 10
70.1644599724
 20
-84.3303387833
 10
70.1644599724
 20
-84.6337214279
 10
70.1644599724
 20
-84.9659976578
 10
70.1644599724
 20
-85.3271674728
 10
70.1608482742
 20
-85.7244542694
 10
70.1608482742
 20
-86.1506346512
 10
70.1572365761
 20
-86.6093203163
 10
70.1572365761
 20
-87.1005112648
 10
70.1572365761
 20
-87.5917022133
 10
70.1572365761
 20
-88.0503878784
 10
70.1536248779
 20
-88.4765682602
 10
70.1536248779
 20
-88.8738550568
 10
70.1536248779
 20
-89.23863657
 10
70.1536248779
 20
-89.5709127998
 10
70.1536248779
 20
-89.8742954445
 10
70.1536248779
 20
-90.1451728058
 10
70.1536248779
 20
-90.1451728058
 10
70.1500131798
 20
-90.5424596024
 10
70.1355663872
 20
-90.9144645119
 10
70.1138961983
 20
-91.2611875343
 10
70.0850026131
 20
-91.5790169716
 10
70.0488856316
 20
-91.8751762199
 10
70.0019335556
 20
-92.1424418831
 10
69.9441463852
 20
-92.3880373573
 10
69.8827475166
 20
-92.6047392464
 10
69.8105135536
 20
-92.7961592484
 10
69.7274444962
 20
-92.9622973633
 10
69.6407637405
 20
-93.1031535912
 10
69.5432478905
 20
-93.218727932
 10
69.434896946
 20
-93.3090203857
 10
69.3229343033
 20
-93.3740309525
 10
69.196524868
 20
-93.410147934
 10
69.0665037346
 20
-93.4245947266
 10
69.0665037346
 20
-93.4245947266
 10
68.7956263733
 20
-93.3993128395
 10
68.5536425972
 20
-93.316243782
 10
68.3405524063
 20
-93.1862226486
 10
68.1563558006
 20
-92.9984143448
 10
68.1563558006
 20
-92.9984143448
 10
68.0191112709
 20
-92.7997709465
 10
67.925207119
 20
-92.5830690575
 10
67.8638082504
 20
-92.3483086777
 10
67.8457497597
 20
-92.0954898071
 10
67.8457497597
 20
-92.0954898071
 10
67.8493614578
 20
-91.8065539551
 10
67.8638082504
 20
-91.4526075363
 10
67.8854784393
 20
-91.0300388527
 10
67.9143720245
 20
-90.5460713005
 10
67.9468773079
 20
-90.0621037483
 10
67.9685474968
 20
-89.6395350647
 10
67.9829942894
 20
-89.2855886459
 10
67.9866059875
 20
-88.9966527939
 10
67.9866059875
 20
-88.9966527939
 10
67.9902176857
 20
-88.5704724121
 10
67.997441082
 20
-88.0539995766
 10
68.0118878746
 20
-87.440010891
 10
68.0299463654
 20
-86.7357297516
 10
68.0480048561
 20
-86.0278369141
 10
68.0624516487
 20
-85.4174599266
 10
68.069675045
 20
-84.8973753929
 10
68.0732867432
 20
-84.4748067093
 10
68.0732867432
 20
-84.4748067093
 10
68.069675045
 20
-84.0197327423
 10
68.0660633469
 20
-83.4635312271
 10
68.0552282524
 20
-82.8025904655
 10
68.0407814598
 20
-82.0405221558
 10
68.0263346672
 20
-81.278453846
 10
68.0154995728
 20
-80.6175130844
 10
68.0118878746
 20
-80.0613115692
 10
68.0082761765
 20
-79.6062376022
 10
68.0082761765
 20
-79.6062376022
 10
68.0010527802
 20
-79.1764455223
 10
67.9757708931
 20
-78.6491375923
 10
67.9360422134
 20
-78.0315372086
 10
67.878255043
 20
-77.3200326729
 10
67.8204678726
 20
-76.6085281372
 10
67.780739193
 20
-75.9909277534
 10
67.7554573059
 20
-75.4636198235
 10
67.7482339096
 20
-75.0338277435
 10
67.7482339096
 20
-75.0338277435
 10
67.7735157967
 20
-74.7593386841
 10
67.8565848541
 20
-74.4992964172
 10
67.9902176857
 20
-74.2500892448
 10
68.1780259895
 20
-74.0117171669
 10
68.4019512749
 20
-73.8094620705
 10
68.6367116547
 20
-73.6613824463
 10
68.8895305252
 20
-73.5747016907
 10
69.1531844902
 20
-73.5458081055
 10
69.1531844902
 20
-73.5458081055
 10
69.3012641144
 20
-73.5674782944
 10
69.460178833
 20
-73.6324888611
 10
69.6263169479
 20
-73.7444515038
 10
69.8032901573
 20
-73.8997545242
 10
69.9838750648
 20
-74.0983979225
 10
70.1752950668
 20
-74.3403816986
 10
70.3739384651
 20
-74.6293175507
 10
70.5834169579
 20
-74.9615937805
 10
70.5834169579
 20
-74.9615937805
 10
71.2551928139
 20
-76.0776085091
 10
71.9089101791
 20
-77.1430594635
 10
72.5481807518
 20
-78.161558342
 10
73.1657811356
 20
-79.1331051445
 10
73.7689347267
 20
-80.0576998711
 10
74.3576415253
 20
-80.9317308235
 10
74.9246781349
 20
-81.7588097
 10
75.477267952
 20
-82.5353248024
 10
75.477267952
 20
-82.5353248024
 10
76.7702558899
 20
-84.3050568962
 10
78.1246426964
 20
-86.0314486122
 10
79.5404283714
 20
-87.7217233467
 10
81.017612915
 20
-89.3722694016
 10
81.017612915
 20
-89.3722694016
 10
81.017612915
 20
-89.0761101532
 10
81.0103895187
 20
-88.7149403381
 10
81.0031661224
 20
-88.2887599564
 10
80.992331028
 20
-87.801180706
 10
80.992331028
 20
-87.801180706
 10
80.9706608391
 20
-86.2409271049
 10
80.9706608391
 20
-86.2409271049
 10
80.9670491409
 20
-84.9190455818
 10
80.9526023483
 20
-83.6621746254
 10
80.9309321594
 20
-82.477537632
 10
80.9020385742
 20
-81.3615229034
 10
80.8659215927
 20
-80.3141304398
 10
80.8189695168
 20
-79.3389719391
 10
80.7647940445
 20
-78.4288240051
 10
80.6997834778
 20
-77.5909100342
 10
80.6997834778
 20
-77.5909100342
 10
80.6745015907
 20
-77.3886549377
 10
80.6311612129
 20
-77.106942482
 10
80.5661506462
 20
-76.7421609688
 10
80.4830815887
 20
-76.2943103981
 10
80.4830815887
 20
-76.2943103981
 10
80.4144593239
 20
-75.8970236015
 10
80.3638955498
 20
-75.5430771828
 10
80.3350019646
 20
-75.2396945381
 10
80.3241668701
 20
-74.9796522713
 10
80.3241668701
 20
-74.9796522713
 10
80.3422253609
 20
-74.6437643433
 10
80.3891774368
 20
-74.3512167931
 10
80.4722464943
 20
-74.1056213188
 10
80.5878208351
 20
-73.9033662224
 10
80.7359004593
 20
-73.7480632019
 10
80.9164853668
 20
-73.6361005592
 10
81.1295755577
 20
-73.5674782944
 10
81.375171032
 20
-73.5458081055
 10
81.375171032
 20
-73.5458081055
 10
81.5846495247
 20
-73.5783133888
 10
81.7796812248
 20
-73.6722175407
 10
81.9602661324
 20
-73.8275205612
 10
82.1300159454
 20
-74.0478341484
 10
82.2853189659
 20
-74.3295466042
 10
82.4261751938
 20
-74.6726579285
 10
82.5525846291
 20
-75.0807798195
 10
82.6681589699
 20
-75.5466888809
 10
82.7692865181
 20
-76.0812202072
 10
82.8559672737
 20
-76.6735387039
 10
82.9282012367
 20
-77.3308677673
 10
82.9896001053
 20
-78.0532073975
 10
83.0365521812
 20
-78.833334198
 10
83.0726691628
 20
-79.6784715652
 10
83.0907276535
 20
-80.5850078011
 10
83.0979510498
 20
-81.5565546036
 10
83.0979510498
 20
-81.5565546036
 10
83.0979510498
 20
-81.9213361168
 10
83.0979510498
 20
-82.3258463097
 10
83.0979510498
 20
-82.7736968803
 10
83.0979510498
 20
-83.2648878288
 10
83.0979510498
 20
-83.795807457
 10
83.0979510498
 20
-84.3700674629
 10
83.0979510498
 20
-84.9876678467
 10
83.0979510498
 20
-85.6486086082
 10
83.0979510498
 20
-86.3095493698
 10
83.0979510498
 20
-86.9271497536
 10
83.0979510498
 20
-87.5014097595
 10
83.0979510498
 20
-88.0323293877
 10
83.0979510498
 20
-88.5235203362
 10
83.0979510498
 20
-88.9713709068
 10
83.0979510498
 20
-89.3758810997
 10
83.0979510498
 20
-89.7406626129
  0
LINE
  5
7E
330
1F
100
AcDbEntity
  8
0
  6
Continuous
 62
     7
370
    25
100
AcDbLine
 10
90.0
 20
-92.5
 30
0.0
 11
90.0
 21
92.5
 31
0.0
  0
LINE
  5
7F
330
1F
100
AcDbEntity
  8
0
  6
Continuous
 62
     7
370
    25
100
AcDbLine
 10
-80.0
 20
-102.5
 30
0.0
 11
80.0
 21
-102.5
 31
0.0
  0
LINE
  5
80
330
1F
100
AcDbEntity
  8
0
  6
Continuous
 62
     7
370
    25
100
AcDbLine
 10
-90.0
 20
92.5
 30
0.0
 11
-90.0
 21
-92.5
 31
0.0
  0
LINE
  5
81
330
1F
100
AcDbEntity
  8
0
  6
Continuous
 62
     7
370
    25
100
AcDbLine
 10
80.0
 20
102.5
 30
0.0
 11
-80.0
 21
102.5
 31
0.0
  0
ARC
  5
82
330
1F
100
AcDbEntity
  8
0
  6
Continuous
 62
     7
370
    25
100
AcDbCircle
 10
80.0
 20
-92.5
 30
0.0
 40
9.999999999999957
100
AcDbArc
 50
270.0
 51
0.0
  0
ARC
  5
83
330
1F
100
AcDbEntity
  8
0
  6
Continuous
 62
     7
370
    25
100
AcDbCircle
 10
-80.0
 20
-92.5
 30
0.0
 40
10.00000000000009
100
AcDbArc
 50
180.0
 51
270.0
  0
ARC
  5
84
330
1F
100
AcDbEntity
  8
0
  6
Continuous
 62
     7
370
    25
100
AcDbCircle
 10
-80.0
 20
92.5
 30
0.0
 40
9.999999999999957
100
AcDbArc
 50
90.0
 51
180.0
  0
ARC
  5
85
330
1F
100
AcDbEntity
  8
0
  6
Continuous
 62
     7
370
    25
100
AcDbCircle
 10
80.0
 20
92.5
 30
0.0
 40
10.0000000000002
100
AcDbArc
 50
0.0
 51
90.0
  0
ENDSEC
  0
SECTION
  2
OBJECTS
  0
DICTIONARY
  5
C
330
0
100
AcDbDictionary
281
     1
  3
ACAD_GROUP
350
D
  3
ACAD_LAYOUT
350
1A
  3
ACAD_MLINESTYLE
350
17
  3
ACAD_PLOTSETTINGS
350
19
  3
ACAD_PLOTSTYLENAME
350
E
  3
ACAD_SCALELIST
350
47
  3
DWGPROPS
350
86
  0
DICTIONARY
  5
D
102
{ACAD_REACTORS
330
C
102
}
330
C
100
AcDbDictionary
281
     1
  0
DICTIONARY
  5
1A
102
{ACAD_REACTORS
330
C
102
}
330
C
100
AcDbDictionary
281
     1
  3
Layout1
350
1E
  3
Layout2
350
26
  3
Model
350
22
  0
DICTIONARY
  5
17
102
{ACAD_REACTORS
330
C
102
}
330
C
100
AcDbDictionary
281
     1
  3
Standard
350
18
  0
DICTIONARY
  5
19
102
{ACAD_REACTORS
330
C
102
}
330
C
100
AcDbDictionary
281
     1
  0
ACDBDICTIONARYWDFLT
  5
E
102
{ACAD_REACTORS
330
C
102
}
330
C
100
AcDbDictionary
281
     1
  3
Normal
350
F
100
AcDbDictionaryWithDefault
340
F
  0
DICTIONARY
  5
47
102
{ACAD_REACTORS
330
C
102
}
330
C
100
AcDbDictionary
281
     1
  3
A0
350
48
  3
A1
350
49
  3
A2
350
4A
  3
A3
350
4B
  3
A4
350
4C
  3
A5
350
4D
  3
A6
350
4E
  3
A7
350
4F
  3
A8
350
50
  3
A9
350
51
  3
B0
350
52
  3
B1
350
53
  3
B2
350
54
  3
B3
350
55
  3
B4
350
56
  3
B5
350
57
  3
B6
350
58
  0
XRECORD
  5
86
102
{ACAD_REACTORS
330
C
102
}
330
C
100
AcDbXrecord
280
     1
  1
DWGPROPS COOKIE
  2

  3

  4

  6

  7

  8
e2202606
  9

300
=
301
=
302
=
303
=
304
=
305
=
306
=
307
=
308
=
309
=
 40
0.0
 41
2461193.372993704
 42
2461193.373071887
  1

 90
        0
  0
LAYOUT
  5
1E
102
{ACAD_REACTORS
330
1A
102
}
330
1A
100
AcDbPlotSettings
  1

  2
none_device
  4

  6

 40
0.0
 41
0.0
 42
0.0
 43
0.0
 44
0.0
 45
0.0
 46
0.0
 47
0.0
 48
0.0
 49
0.0
140
0.0
141
0.0
142
1.0
143
1.0
 70
   688
 72
     1
 73
     0
 74
     5
  7

 75
    16
147
1.0
148
0.0
149
0.0
100
AcDbLayout
  1
Layout1
 70
     1
 71
     1
 10
0.0
 20
0.0
 11
420.0
 21
297.0
 12
0.0
 22
0.0
 32
0.0
 14
1.0000000000E+20
 24
1.0000000000E+20
 34
1.0000000000E+20
 15
-1.0000000000E+20
 25
-1.0000000000E+20
 35
-1.0000000000E+20
146
0.0
 13
0.0
 23
0.0
 33
0.0
 16
1.0
 26
0.0
 36
0.0
 17
0.0
 27
1.0
 37
0.0
 76
     0
330
1B
  0
LAYOUT
  5
26
102
{ACAD_REACTORS
330
1A
102
}
330
1A
100
AcDbPlotSettings
  1

  2
none_device
  4

  6

 40
0.0
 41
0.0
 42
0.0
 43
0.0
 44
0.0
 45
0.0
 46
0.0
 47
0.0
 48
0.0
 49
0.0
140
0.0
141
0.0
142
1.0
143
1.0
 70
   688
 72
     1
 73
     0
 74
     5
  7

 75
    16
147
1.0
148
0.0
149
0.0
100
AcDbLayout
  1
Layout2
 70
     1
 71
     2
 10
0.0
 20
0.0
 11
0.0
 21
0.0
 12
0.0
 22
0.0
 32
0.0
 14
0.0
 24
0.0
 34
0.0
 15
0.0
 25
0.0
 35
0.0
146
0.0
 13
0.0
 23
0.0
 33
0.0
 16
1.0
 26
0.0
 36
0.0
 17
0.0
 27
1.0
 37
0.0
 76
     0
330
23
  0
LAYOUT
  5
22
102
{ACAD_REACTORS
330
1A
102
}
330
1A
100
AcDbPlotSettings
  1

  2
none_device
  4
ANSI_A_(11.00_x_8.50_Inches)
  6

 40
6.35
 41
19.05
 42
6.35000508
 43
19.05000254
 44
279.4
 45
215.9
 46
133.34999746
 47
88.89999873
 48
0.0
 49
0.0
140
0.0
141
0.0
142
0.0410487805
143
1.0
 70
  1696
 72
     0
 73
     0
 74
     0
  7

 75
     0
147
0.0179189148
148
-1300.4909072572
149
0.0
100
AcDbLayout
  1
Model
 70
     1
 71
     0
 10
0.0
 20
0.0
 11
420.0
 21
297.0
 12
0.0
 22
0.0
 32
0.0
 14
-90.0
 24
-102.5
 34
0.0
 15
90.0
 25
102.5
 35
0.0
146
0.0
 13
0.0
 23
0.0
 33
0.0
 16
1.0
 26
0.0
 36
0.0
 17
0.0
 27
1.0
 37
0.0
 76
     0
330
1F
331
29
  0
MLINESTYLE
  5
18
102
{ACAD_REACTORS
330
17
102
}
330
17
100
AcDbMlineStyle
  2
Standard
 70
     0
  3

 62
   256
 51
90.0
 52
90.0
 71
     2
 49
0.5
 62
   256
  6
BYLAYER
 49
-0.5
 62
   256
  6
BYLAYER
  0
ACDBPLACEHOLDER
  5
F
102
{ACAD_REACTORS
330
E
102
}
330
E
  0
SCALE
  5
48
102
{ACAD_REACTORS
330
47
102
}
330
47
100
AcDbScale
 70
     0
300
1:1
140
1.0
141
1.0
290
     1
  0
SCALE
  5
49
102
{ACAD_REACTORS
330
47
102
}
330
47
100
AcDbScale
 70
     0
300
1:2
140
1.0
141
2.0
290
     0
  0
SCALE
  5
4A
102
{ACAD_REACTORS
330
47
102
}
330
47
100
AcDbScale
 70
     0
300
1:4
140
1.0
141
4.0
290
     0
  0
SCALE
  5
4B
102
{ACAD_REACTORS
330
47
102
}
330
47
100
AcDbScale
 70
     0
300
1:5
140
1.0
141
5.0
290
     0
  0
SCALE
  5
4C
102
{ACAD_REACTORS
330
47
102
}
330
47
100
AcDbScale
 70
     0
300
1:8
140
1.0
141
8.0
290
     0
  0
SCALE
  5
4D
102
{ACAD_REACTORS
330
47
102
}
330
47
100
AcDbScale
 70
     0
300
1:10
140
1.0
141
10.0
290
     0
  0
SCALE
  5
4E
102
{ACAD_REACTORS
330
47
102
}
330
47
100
AcDbScale
 70
     0
300
1:16
140
1.0
141
16.0
290
     0
  0
SCALE
  5
4F
102
{ACAD_REACTORS
330
47
102
}
330
47
100
AcDbScale
 70
     0
300
1:20
140
1.0
141
20.0
290
     0
  0
SCALE
  5
50
102
{ACAD_REACTORS
330
47
102
}
330
47
100
AcDbScale
 70
     0
300
1:30
140
1.0
141
30.0
290
     0
  0
SCALE
  5
51
102
{ACAD_REACTORS
330
47
102
}
330
47
100
AcDbScale
 70
     0
300
1:40
140
1.0
141
40.0
290
     0
  0
SCALE
  5
52
102
{ACAD_REACTORS
330
47
102
}
330
47
100
AcDbScale
 70
     0
300
1:50
140
1.0
141
50.0
290
     0
  0
SCALE
  5
53
102
{ACAD_REACTORS
330
47
102
}
330
47
100
AcDbScale
 70
     0
300
1:100
140
1.0
141
100.0
290
     0
  0
SCALE
  5
54
102
{ACAD_REACTORS
330
47
102
}
330
47
100
AcDbScale
 70
     0
300
2:1
140
2.0
141
1.0
290
     0
  0
SCALE
  5
55
102
{ACAD_REACTORS
330
47
102
}
330
47
100
AcDbScale
 70
     0
300
4:1
140
4.0
141
1.0
290
     0
  0
SCALE
  5
56
102
{ACAD_REACTORS
330
47
102
}
330
47
100
AcDbScale
 70
     0
300
8:1
140
8.0
141
1.0
290
     0
  0
SCALE
  5
57
102
{ACAD_REACTORS
330
47
102
}
330
47
100
AcDbScale
 70
     0
300
10:1
140
10.0
141
1.0
290
     0
  0
SCALE
  5
58
102
{ACAD_REACTORS
330
47
102
}
330
47
100
AcDbScale
 70
     0
300
100:1
140
100.0
141
1.0
290
     0
  0
ENDSEC
  0
EOF
